<svg width="500" height="500" viewBox="0 0 500 500" fill="none" xmlns="http://www.w3.org/2000/svg">
<g clip-path="url(#clip0_6_123)">
<rect width="500" height="500" fill="white"/>
<rect width="512" height="288" transform="translate(0 112)" fill="white"/>
<path d="M297.6 168.319C299.201 168.795 300.802 169.271 302.452 169.761C305.565 170.688 308.675 171.628 311.78 172.583C314.416 173.363 317.07 174.089 319.744 174.726C324.65 175.899 327.813 176.762 331.313 180.498C334.01 184.986 334.42 187.665 334.586 192.862C334.649 194.434 334.711 196.005 334.776 197.624C334.836 200.064 334.836 200.064 334.897 202.552C334.957 204.206 335.017 205.859 335.079 207.563C335.225 211.635 335.347 215.706 335.448 219.779C336.571 216.903 336.571 216.903 337.717 213.968C340.008 208.631 342.23 205.146 346.814 201.448C347.831 200.596 348.848 199.744 349.897 198.867C357.683 193.873 367.116 194.041 376.055 195.043C386.819 197.936 393.197 204.165 398.89 213.588C402.964 223.161 402.122 231.914 398.676 241.534C393.568 249.113 388.154 255.208 379.586 258.65C368.064 260.067 357.332 259.765 347.145 253.86C342.511 250.182 340.036 246.159 337.214 240.982C336.34 242.731 336.34 242.731 335.448 244.515C333.962 244.247 332.476 243.978 330.945 243.701C311.031 240.586 297.532 241.282 279.724 250.699C264.892 258.507 253.576 261.741 236.579 258.65C231.151 256.79 227.296 254.746 222.455 251.583C226.765 246.454 230.59 245.033 236.993 243.308C238.834 242.802 240.675 242.297 242.571 241.776C244.527 241.259 246.482 240.741 248.497 240.209C250.483 239.67 252.469 239.131 254.515 238.576C258.481 237.502 262.45 236.436 266.42 235.377C271.104 234.124 275.778 232.843 280.448 231.54C297.431 226.847 297.431 226.847 305.435 226.847C305.435 218.101 305.435 209.355 305.435 200.344C301.393 199.578 297.351 198.813 293.186 198.025C267.839 193.007 267.839 193.007 258.538 186.65C254.82 180.827 254.915 177.063 256 170.307C266.718 157.234 283.848 164.095 297.6 168.319Z" fill="black"/>
<path d="M68.8552 290.454C86.377 288.359 97.9958 295.543 112.834 303.975C124.37 309.01 138.817 309.339 150.638 304.772C154.884 302.748 159.046 300.612 163.2 298.405C178.73 290.296 192.663 286.161 210.097 290.454C220.121 294.044 229.227 299.146 238.345 304.589C247.061 308.95 258.929 308.195 268.359 306.356C274.144 304.13 279.551 301.312 285.021 298.405C302.17 289.405 316.076 286.809 335.269 291.779C341.094 293.931 346.231 296.438 351.352 299.958C363.13 307.823 375.719 308.842 389.502 307.251C398.802 305.272 407.209 300.735 415.454 296.113C425.269 290.718 431.933 289.653 443.145 290.454C443.145 292.786 443.145 295.119 443.145 297.521C442.137 297.72 441.128 297.918 440.09 298.122C429.948 300.591 422.199 304.661 413.793 310.773C396.968 322.825 383.081 326.454 362.264 324.696C355.864 323.584 350.523 320.869 344.828 317.841C332.134 311.164 321.456 308.578 307.2 311.656C299.912 314.53 293.195 318.306 286.503 322.354C272.071 330.928 256.556 331.809 240.11 329.325C231.151 326.571 223.379 321.792 215.393 316.957C203.627 310.292 193.388 309.673 180.083 311.656C175.679 313.591 171.595 315.555 167.393 317.841C152.338 325.852 136.804 326.993 120.055 324.025C110.262 320.643 103.121 315.647 95.4483 308.785C87.4688 302.592 78.4678 300.308 68.8552 297.521C68.8552 295.189 68.8552 292.857 68.8552 290.454Z" fill="black"/>
<path d="M220.248 256.497C225.404 259.292 230.354 262.304 235.186 265.628C244.918 271.349 257.533 270.54 268.359 269.252C275.862 266.44 282.625 262.666 289.545 258.65C303.582 250.753 317.468 248.705 333.283 252.873C341.841 256.102 349.48 260.451 357.007 265.628C366.921 271.456 380.936 271.392 391.945 269.252C398.18 266.846 403.91 263.57 409.726 260.3C420.649 254.349 430.699 253.008 443.145 253.35C442.745 256.745 442.745 256.745 441.379 260.417C438.028 261.77 438.028 261.77 433.655 262.626C425.74 264.665 420.568 267.655 414.124 272.675C399.391 283.888 385.344 288.416 366.759 287.99C359.062 286.741 353.105 284.13 346.152 280.736C332.487 274.183 320.679 271.262 305.434 274.552C295.902 278.342 287.064 283.403 278.357 288.794C267.691 294.825 251.448 293.684 239.628 291.469C234.084 289.494 229.215 286.746 224.11 283.814C208.725 275.325 196.285 271.438 178.317 274.552C170.245 277.428 162.89 281.084 155.366 285.153C143.106 289.243 126.718 288.577 114.759 283.387C108.095 279.539 101.728 275.301 95.3379 271.018C86.8576 265.685 78.2835 261.961 68.8552 258.65C68.8552 256.901 68.8552 255.152 68.8552 253.35C85.1373 250.911 95.519 256.238 109.131 264.22C120.154 270.615 132.282 271.593 144.772 269.252C153.704 266.088 161.855 261.363 170.088 256.731C185.685 248.145 204.301 249.147 220.248 256.497Z" fill="black"/>
<path d="M286.014 165.006C287.762 165.589 289.509 166.172 291.31 166.773C291.31 167.356 291.31 167.939 291.31 168.54C283.437 170.372 279.184 170.22 271.89 166.773C270.724 166.773 269.559 166.773 268.359 166.773C268.359 167.939 268.359 169.105 268.359 170.307C269.524 170.307 270.689 170.307 271.89 170.307C271.307 172.639 270.724 174.971 270.124 177.374C268.777 177.593 267.429 177.812 266.041 178.037C260.939 178.931 260.939 178.931 256 182.675C254.936 171.604 254.936 171.604 259.531 166C268.473 161.339 276.645 162.387 286.014 165.006Z" fill="black"/>
<path d="M127.779 250.706C130.073 250.758 130.073 250.758 132.414 250.81C133.943 250.812 135.473 250.814 137.048 250.817C141.905 251.704 143.488 253.098 146.538 256.883C140.496 258.899 135.792 258.824 129.435 258.761C126.311 258.737 126.311 258.737 123.124 258.712C121.529 258.692 119.933 258.671 118.29 258.65C122.391 251.833 122.391 251.833 127.779 250.706Z" fill="black"/>
<path d="M337.214 235.681C338.379 235.681 339.544 235.681 340.745 235.681C340.745 236.847 340.745 238.013 340.745 239.215C342.274 239.871 342.274 239.871 343.834 240.54C348.337 243.043 351.369 246.064 354.869 249.816C354.286 251.565 353.704 253.314 353.103 255.117C346.688 253.333 344.393 251.731 340.193 246.393C337.214 240.982 337.214 240.982 337.214 235.681Z" fill="black"/>
<path d="M305.434 200.344C306.017 200.344 306.6 200.344 307.2 200.344C307.783 207.923 308.365 215.503 308.965 223.313C311.296 223.313 313.626 223.313 316.028 223.313C315.445 225.062 314.862 226.811 314.262 228.614C311.349 228.03 308.436 227.447 305.434 226.847C305.434 218.101 305.434 209.355 305.434 200.344Z" fill="black"/>
<path d="M264.828 163.239C274.585 162.897 282.052 163.685 291.31 166.773C291.31 167.356 291.31 167.939 291.31 168.54C281.224 171.387 274.208 168.699 264.828 165.006C264.828 164.423 264.828 163.84 264.828 163.239Z" fill="black"/>
</g>
<defs>
<clipPath id="clip0_6_123">
<rect width="500" height="500" fill="white"/>
</clipPath>
</defs>
</svg>
