<svg width="500" height="500" viewBox="0 0 500 500" fill="none" xmlns="http://www.w3.org/2000/svg">
<g clip-path="url(#clip0_6_300)">
<rect width="500" height="500" fill="white"/>
<path d="M68.8552 290.454C86.3771 288.359 97.9959 295.543 112.835 303.975C124.37 309.01 138.817 309.339 150.638 304.772C154.884 302.748 159.046 300.612 163.2 298.405C178.73 290.296 192.663 286.161 210.097 290.454C220.121 294.044 229.227 299.146 238.345 304.589C247.061 308.95 258.929 308.195 268.359 306.356C274.144 304.13 279.551 301.311 285.021 298.405C302.539 289.244 316.677 286.473 336.179 292.235C343.711 295.208 350.415 298.705 357.262 303.036C363.774 306.76 369.935 307.777 377.379 307.791C379.298 307.805 379.298 307.805 381.255 307.819C394.088 307.315 404.385 302.32 415.453 296.112C425.269 290.719 431.933 289.653 443.145 290.454C443.145 292.786 443.145 295.119 443.145 297.521C442.137 297.72 441.128 297.918 440.09 298.122C429.948 300.591 422.199 304.661 413.793 310.773C396.968 322.825 383.081 326.454 362.264 324.696C355.864 323.584 350.523 320.869 344.828 317.841C332.135 311.165 321.455 308.575 307.2 311.656C299.965 314.533 293.316 318.315 286.676 322.354C272.342 330.623 256.304 331.898 240.11 329.325C231.193 326.515 223.386 321.74 215.393 316.957C203.622 310.298 193.392 309.672 180.083 311.656C175.679 313.591 171.595 315.555 167.393 317.841C152.338 325.852 136.804 326.993 120.055 324.025C110.262 320.643 103.121 315.647 95.4483 308.785C87.4688 302.592 78.4679 300.308 68.8552 297.521C68.8552 295.189 68.8552 292.857 68.8552 290.454Z" fill="black"/>
<path d="M218.469 256.373C221.428 258.063 224.378 259.768 227.324 261.48C241.875 269.503 254.26 271.999 270.683 268.34C278.213 265.804 284.695 261.701 291.214 257.208C303.355 250.209 316.538 249.71 330.152 251.583C336.894 253.885 342.929 257.236 349.124 260.728C364.246 269.212 377.927 272.496 395.028 267.968C402.43 265.125 408.95 261.502 415.669 257.325C424.612 252.081 433.045 252.5 443.145 253.35C442.724 256.718 442.724 256.718 441.379 260.417C438.103 262.018 438.103 262.018 433.986 263.067C426.526 265.263 421.272 268.228 414.897 272.785C397.791 283.884 381.023 291.058 360.166 286.92C353.126 284.439 346.438 281.273 339.829 277.814C329.023 272.318 319.816 270.996 307.952 273.896C306.721 274.441 305.489 274.985 304.221 275.546C302.746 276.177 301.271 276.808 299.752 277.458C296.159 279.21 292.635 281.104 289.159 283.076C272.758 292.188 258.51 295.218 239.704 291.427C234.094 289.548 229.239 286.76 224.11 283.814C208.725 275.325 196.285 271.438 178.317 274.552C170.245 277.428 162.89 281.084 155.366 285.153C143.106 289.243 126.718 288.577 114.759 283.386C108.095 279.539 101.728 275.301 95.338 271.018C86.8577 265.685 78.2836 261.961 68.8552 258.65C68.8552 256.901 68.8552 255.152 68.8552 253.35C85.1373 250.911 95.5191 256.238 109.131 264.22C120.154 270.615 132.282 271.593 144.772 269.252C153.704 266.088 161.855 261.363 170.089 256.731C184.998 248.522 203.36 248.617 218.469 256.373Z" fill="black"/>
<path d="M380.91 195.374C391.601 201.341 397.072 208.084 400.772 219.779C402.596 230.907 400.464 237.543 394.028 246.641C391.479 250.527 390.611 254.044 390.179 258.65C373.751 264.131 360.888 259.928 345.931 252.577C341.767 250.476 337.619 248.355 333.496 246.176C322.513 240.723 308.601 241.075 296.607 242.748C288.989 245.455 282.308 249.144 275.421 253.35C263.114 260.321 250.38 260.039 236.579 258.65C230.842 256.907 225.81 254.694 220.69 251.583C220.69 250.417 220.69 249.251 220.69 248.049C223.484 247.2 226.28 246.354 229.076 245.509C230.633 245.038 232.189 244.566 233.793 244.081C238.345 242.748 238.345 242.748 241.912 242.147C246.342 240.67 247.158 239.175 249.386 235.136C250.056 233.962 250.727 232.788 251.417 231.578C252.092 230.345 252.767 229.111 253.462 227.84C254.814 225.407 256.177 222.98 257.552 220.559C258.145 219.478 258.738 218.398 259.349 217.285C261.297 214.479 261.297 214.479 266.593 210.945C278.344 211.324 288.498 214.436 299.635 218.047C306.579 220.121 313.493 221.37 320.635 222.54C325.769 223.48 330.571 225 335.448 226.847C335.266 225.389 335.084 223.931 334.897 222.429C335.77 212.634 340.187 205.802 347.448 199.246C358.503 191.436 368.275 191.37 380.91 195.374Z" fill="black"/>
<path d="M144.772 246.282C149.297 249.816 149.297 249.816 151.834 253.35C140.314 259.377 132.876 260.631 120.055 260.417C120.599 255.385 121.211 252.32 124.469 248.38C131.151 245.204 137.514 245.016 144.772 246.282Z" fill="black"/>
<path d="M294.841 218.012C300.085 218.887 300.085 218.887 305.434 219.779C303.104 222.111 300.773 224.444 298.372 226.847C297.207 225.68 296.042 224.514 294.841 223.313C294.841 221.564 294.841 219.814 294.841 218.012Z" fill="black"/>
</g>
<defs>
<clipPath id="clip0_6_300">
<rect width="500" height="500" fill="white"/>
</clipPath>
</defs>
</svg>
