<svg width="500" height="500" viewBox="0 0 500 500" fill="none" xmlns="http://www.w3.org/2000/svg">
<g clip-path="url(#clip0_12_36)">
<rect width="500" height="500" fill="white"/>
<path d="M281.338 196.575C289.921 199.242 295.661 203.767 302.565 209.399C303.878 210.438 305.191 211.477 306.544 212.547C309.135 214.6 311.719 216.662 314.294 218.734C318.691 222.268 323.148 225.72 327.614 229.166C329.638 230.747 331.661 232.329 333.683 233.914C333.815 232.655 333.947 231.395 334.083 230.097C335.752 217.925 338.316 210.144 347.807 202.11C355.696 196.419 363.335 195.683 372.841 195.968C382.662 197.628 389.695 202.948 396.262 210.248C401.944 218.618 402.102 227.645 400.772 237.448C397.368 246.95 391.58 253.31 383.448 259.202C370.352 263.322 359.62 259.045 347.807 253.35C346.23 252.416 344.652 251.482 343.027 250.52C328.046 241.865 313.597 239.649 296.607 242.748C288.927 245.469 282.339 249.096 275.421 253.35C267.183 258.203 260.363 259.557 250.924 259.423C249.681 259.418 248.439 259.412 247.159 259.406C237.131 259.137 230.714 257.093 222.455 251.583C223.62 251 224.786 250.417 225.986 249.816C225.804 247.666 225.622 245.516 225.434 243.301C225.124 239.636 225.124 239.636 225.986 235.681C232.776 227.633 241.343 221.574 249.71 215.252C251.013 214.255 252.316 213.259 253.659 212.232C256.203 210.297 258.76 208.378 261.33 206.478C264.365 204.221 267.337 201.879 270.296 199.522C275.421 196.81 275.421 196.81 281.338 196.575Z" fill="black"/>
<path d="M68.855 290.454C86.3768 288.359 97.9956 295.543 112.834 303.975C124.394 309.02 138.819 309.317 150.666 304.772C154.941 302.75 159.131 300.618 163.31 298.405C180.031 289.586 194.247 286.451 212.993 291.779C218.379 294.041 223.201 296.892 228.165 299.958C240.848 307.237 253.934 309.774 268.358 306.356C274.105 304.066 279.543 301.274 285.02 298.405C302.549 289.253 316.667 286.47 336.179 292.235C343.711 295.208 350.415 298.705 357.262 303.036C363.773 306.76 369.935 307.777 377.379 307.791C379.298 307.805 379.298 307.805 381.255 307.819C394.088 307.315 404.384 302.32 415.453 296.112C425.269 290.719 431.932 289.653 443.145 290.454C443.145 292.786 443.145 295.119 443.145 297.521C442.136 297.72 441.128 297.918 440.089 298.122C429.947 300.591 422.199 304.661 413.793 310.773C396.968 322.825 383.08 326.454 362.264 324.696C355.864 323.584 350.523 320.869 344.827 317.84C332.135 311.165 321.454 308.575 307.2 311.656C299.965 314.533 293.316 318.315 286.676 322.354C272.341 330.623 256.304 331.898 240.11 329.325C231.193 326.515 223.385 321.74 215.393 316.957C203.621 310.298 193.392 309.672 180.083 311.656C175.679 313.591 171.595 315.555 167.393 317.84C152.338 325.852 136.804 326.993 120.055 324.025C110.262 320.643 103.12 315.647 95.4481 308.785C87.4686 302.592 78.4676 300.308 68.855 297.521C68.855 295.189 68.855 292.857 68.855 290.454Z" fill="black"/>
<path d="M217.048 255.558C220.059 257.118 223.042 258.734 225.986 260.417C227.206 261.11 228.426 261.802 229.683 262.515C230.757 263.135 231.831 263.754 232.938 264.393C244.211 270.84 257.964 271.159 270.558 268.375C278.411 265.576 285.593 261.42 292.765 257.208C305.604 250.218 319.094 249.173 333.31 252.86C341.845 256.126 349.485 260.455 357.007 265.628C366.772 271.368 379.292 270.168 390.179 269.252C398.899 266.925 406.17 263.284 413.683 258.319C422.406 252.942 433.196 253.649 443.145 253.35C442.703 256.732 442.703 256.732 441.379 260.417C438.289 261.894 438.289 261.894 434.317 262.847C426.291 265.182 420.517 268.782 413.724 273.565C397.319 284.519 380.065 290.627 360.165 286.92C353.115 284.463 346.44 281.275 339.83 277.814C329.022 272.32 319.817 270.995 307.952 273.896C306.72 274.441 305.489 274.985 304.22 275.546C302.746 276.177 301.271 276.808 299.752 277.458C296.159 279.21 292.635 281.104 289.158 283.076C272.758 292.188 258.509 295.218 239.703 291.427C234.094 289.548 229.239 286.76 224.11 283.814C208.725 275.325 196.285 271.438 178.317 274.552C170.245 277.428 162.889 281.084 155.365 285.153C143.106 289.243 126.717 288.577 114.758 283.387C108.095 279.539 101.728 275.301 95.3377 271.018C86.8575 265.685 78.2833 261.961 68.855 258.65C68.855 256.901 68.855 255.152 68.855 253.35C85.1371 250.911 95.5188 256.238 109.131 264.22C120.539 270.838 131.872 270.257 144.772 269.252C152.352 267.177 158.73 263.321 165.469 259.354C182.585 249.83 198.722 247.494 217.048 255.558Z" fill="black"/>
<path d="M123.586 245.067C125.596 245.259 127.605 245.45 129.676 245.647C132.779 245.962 132.779 245.962 135.945 246.282C139.953 246.621 143.963 246.952 147.972 247.276C151.025 247.533 154.078 247.79 157.131 248.049C157.131 249.215 157.131 250.381 157.131 251.583C143.384 258.923 129.762 263.687 114.124 259.23C110.763 257.966 107.457 256.554 104.166 255.117C104.607 251.804 104.607 251.804 105.931 248.049C111.684 243.718 116.648 244.361 123.586 245.067Z" fill="black"/>
<path d="M250.704 214.479C251.869 215.062 253.034 215.645 254.235 216.245C253.652 217.995 253.069 219.744 252.469 221.546C250.776 221.929 250.776 221.929 249.049 222.319C245.049 222.961 245.049 222.961 243.2 226.957C242.763 228.087 242.326 229.216 241.876 230.38C240.711 230.38 239.546 230.38 238.345 230.38C237.762 231.547 237.18 232.713 236.58 233.914C235.414 233.914 234.249 233.914 233.049 233.914C231.301 234.497 229.553 235.08 227.752 235.681C230.449 228.462 235.01 225.436 241.214 221.104C242.985 219.856 244.755 218.608 246.58 217.322C247.941 216.384 249.301 215.445 250.704 214.479Z" fill="black"/>
<path d="M353.104 198.577C356.635 200.344 356.635 200.344 358.4 203.877C356.653 203.877 354.905 203.877 353.104 203.877C352.521 205.043 351.939 206.21 351.338 207.411C348.396 207.411 345.453 207.411 342.511 207.411C346.006 204.496 349.502 201.58 353.104 198.577Z" fill="black"/>
<path d="M112.993 246.282C112.41 249.781 111.828 253.279 111.228 256.883C108.897 256.3 106.567 255.717 104.166 255.117C104.828 251.693 104.828 251.693 105.931 248.049C109.462 246.282 109.462 246.282 112.993 246.282Z" fill="black"/>
<path d="M225.986 235.681C227.734 236.264 229.482 236.847 231.283 237.448C231.283 238.614 231.283 239.78 231.283 240.982C230.117 240.982 228.952 240.982 227.752 240.982C228.334 244.48 228.917 247.978 229.517 251.583C227.769 252.457 227.769 252.457 225.986 253.35C224.821 252.184 223.656 251.017 222.455 249.816C223.62 249.816 224.786 249.816 225.986 249.816C225.986 245.151 225.986 240.487 225.986 235.681Z" fill="black"/>
</g>
<defs>
<clipPath id="clip0_12_36">
<rect width="500" height="500" fill="white"/>
</clipPath>
</defs>
</svg>
