<svg width="500" height="500" viewBox="0 0 500 500" fill="none" xmlns="http://www.w3.org/2000/svg">
<g clip-path="url(#clip0_12_87)">
<rect width="500" height="500" fill="white"/>
<path d="M296.607 186.209C304.794 192.603 310.781 201.68 317.021 209.951C318.017 211.255 319.012 212.559 320.038 213.902C325.436 221.01 330.596 228.189 335.448 235.681C335.264 234.045 335.264 234.045 335.076 232.375C334.368 221.294 336.084 214.401 342.807 205.499C350.001 197.962 357.773 194.761 368.11 194.049C378.4 194.564 385.785 199.512 392.959 206.638C399.927 214.631 401.422 221.152 401.255 231.423C400.161 241.079 395.708 248.762 388.414 255.117C379.691 260.643 370.081 260.053 360.166 258.65C353.008 256.478 346.733 253.139 340.428 249.146C326.785 241.078 312.071 240.088 296.607 242.748C288.97 245.466 282.299 249.089 275.421 253.35C263.327 260.2 250.14 260.144 236.579 258.65C230.462 255.959 230.462 255.959 225.986 253.35C225.986 251.6 225.986 249.851 225.986 248.049C227.805 247.514 229.623 246.979 231.497 246.427C232.698 246.073 233.899 245.72 235.137 245.355C237.814 244.567 240.492 243.781 243.17 242.996C250.265 240.913 257.353 238.811 264.428 236.661C265.772 236.256 267.116 235.851 268.501 235.434C271.083 234.655 273.663 233.869 276.241 233.074C282.193 231.288 286.792 230.38 293.076 230.38C290.746 226.882 288.415 223.384 286.014 219.779C276.709 221.21 268.279 224.892 259.635 228.465C251.69 231.592 245.26 232.924 236.579 232.147C232.276 229.386 232.276 229.386 229.517 225.08C228.311 217.704 228.516 214.198 232.717 207.963C239.006 203.397 244.708 201.193 252.042 198.777C256.294 197.315 260.353 195.768 264.483 194.015C265.637 193.528 266.791 193.042 267.98 192.541C271.301 191.13 274.616 189.705 277.931 188.279C284.806 186.026 289.437 185.174 296.607 186.209Z" fill="black"/>
<path d="M220.242 256.497C225.442 259.311 230.457 262.32 235.359 265.628C245.179 271.734 259.734 270.722 270.683 268.375C278.485 265.583 285.636 261.395 292.766 257.208C305.605 250.218 319.095 249.173 333.311 252.86C341.846 256.126 349.486 260.455 357.007 265.628C366.773 271.368 379.292 270.168 390.18 269.252C398.9 266.925 406.17 263.284 413.683 258.319C422.406 252.942 433.197 253.649 443.145 253.35C442.745 256.745 442.745 256.745 441.38 260.417C438.028 261.77 438.028 261.77 433.655 262.626C425.74 264.665 420.568 267.655 414.124 272.675C399.391 283.888 385.344 288.416 366.759 287.99C359.062 286.741 353.105 284.13 346.152 280.736C332.487 274.183 320.679 271.262 305.435 274.552C295.903 278.342 287.065 283.403 278.357 288.794C267.691 294.825 251.448 293.684 239.628 291.469C234.084 289.494 229.215 286.746 224.111 283.814C208.725 275.325 196.285 271.438 178.318 274.552C170.246 277.428 162.89 281.084 155.366 285.153C143.106 289.243 126.718 288.577 114.759 283.387C108.096 279.539 101.728 275.301 95.3382 271.018C86.8579 265.685 78.2838 261.961 68.8555 258.65C68.8555 256.901 68.8555 255.152 68.8555 253.35C85.1376 250.911 95.5193 256.238 109.131 264.22C120.547 270.843 133.682 271.795 146.538 269.252C156.127 265.642 164.926 260.39 173.616 255.01C187.266 247.292 206.61 250.204 220.242 256.497Z" fill="black"/>
<path d="M68.8555 290.454C86.3773 288.359 97.9961 295.543 112.835 303.975C124.37 309.01 138.818 309.339 150.638 304.772C154.884 302.748 159.046 300.612 163.2 298.405C178.73 290.296 192.663 286.161 210.097 290.454C220.121 294.044 229.227 299.146 238.345 304.589C247.061 308.95 258.93 308.195 268.359 306.356C274.144 304.13 279.551 301.312 285.021 298.405C302.171 289.405 316.076 286.809 335.269 291.779C341.094 293.931 346.231 296.438 351.352 299.958C363.13 307.823 375.72 308.842 389.502 307.251C398.802 305.272 407.209 300.735 415.455 296.113C425.269 290.718 431.934 289.653 443.145 290.454C443.145 292.786 443.145 295.119 443.145 297.521C442.137 297.72 441.129 297.918 440.09 298.122C429.948 300.591 422.2 304.661 413.793 310.773C396.968 322.825 383.081 326.454 362.264 324.696C355.865 323.584 350.523 320.869 344.828 317.841C332.136 311.165 321.455 308.575 307.2 311.656C299.965 314.533 293.316 318.315 286.676 322.354C272.342 330.623 256.304 331.898 240.111 329.325C231.193 326.515 223.386 321.74 215.393 316.957C203.622 310.298 193.393 309.672 180.083 311.656C175.679 313.591 171.595 315.555 167.393 317.841C152.338 325.852 136.804 326.993 120.055 324.025C110.262 320.643 103.121 315.647 95.4486 308.785C87.4691 302.592 78.4681 300.308 68.8555 297.521C68.8555 295.189 68.8555 292.857 68.8555 290.454Z" fill="black"/>
<path d="M133.538 245.627C140.186 246.671 144.543 249.584 150.069 253.35C143.424 260 134.708 260.646 125.683 260.748C121.198 260.71 118.794 260.669 114.759 258.65C116.753 247.073 122.769 245.327 133.538 245.627Z" fill="black"/>
<path d="M351.338 198.577C352.503 199.16 353.669 199.743 354.869 200.344C352.539 204.425 350.208 208.507 347.807 212.712C346.059 212.712 344.311 212.712 342.511 212.712C340.763 213.586 340.763 213.586 338.979 214.479C341.363 206.671 344.737 203.27 351.338 198.577Z" fill="black"/>
<path d="M337.213 214.479C337.796 215.645 338.379 216.811 338.979 218.012C340.144 218.595 341.309 219.178 342.51 219.779C341.345 220.945 340.179 222.111 338.979 223.313C338.979 225.645 338.979 227.977 338.979 230.38C337.814 232.13 336.648 233.879 335.448 235.681C335.4 232.81 335.366 229.939 335.337 227.067C335.317 225.469 335.296 223.87 335.275 222.222C335.448 218.012 335.448 218.012 337.213 214.479Z" fill="black"/>
</g>
<defs>
<clipPath id="clip0_12_87">
<rect width="500" height="500" fill="white"/>
</clipPath>
</defs>
</svg>
