<svg width="500" height="500" viewBox="0 0 500 500" fill="none" xmlns="http://www.w3.org/2000/svg">
<g clip-path="url(#clip0_9_3)">
<rect width="500" height="500" fill="white"/>
<path d="M301.903 184.442C310.43 190.962 314.841 199.867 319.779 209.178C321.291 211.976 322.803 214.774 324.317 217.571C325.017 218.871 325.716 220.172 326.436 221.511C328.735 225.719 331.167 229.833 333.683 233.914C333.756 231.618 333.828 229.322 333.903 226.957C335.023 216.825 339.481 209.754 346.041 202.11C354.179 195.906 362.039 194.283 372.255 194.436C381.704 195.946 389.172 202.289 395.366 209.288C401.412 217.907 402.233 227.111 400.772 237.448C397.023 247.268 390.663 253.871 381.531 258.919C372.168 262.699 364.775 261.214 355.862 257.436C348.907 254.064 342.183 250.293 335.524 246.372C323.684 240.278 306.885 241.02 294.055 243.625C290.592 244.867 287.484 246.296 284.248 248.049C282.867 248.794 281.485 249.539 280.062 250.306C277.309 251.827 274.571 253.377 271.855 254.965C261.169 260.829 248.391 259.578 236.579 258.65C230.829 256.928 225.815 254.696 220.69 251.583C220.69 250.417 220.69 249.251 220.69 248.049C222.779 247.6 224.868 247.152 227.021 246.689C241.576 243.531 255.94 240.262 270.124 235.681C274.316 234.389 278.509 233.101 282.703 231.816C286.161 230.749 289.619 229.682 293.076 228.613C293.076 222.953 291.764 219.613 289.545 214.479C285.351 215.579 281.158 216.684 276.966 217.791C275.791 218.099 274.617 218.406 273.407 218.723C267.961 220.166 262.636 221.691 257.297 223.506C251.194 225.496 246.488 225.789 240.11 225.08C235.807 222.429 235.807 222.429 233.048 218.012C231.973 213.057 231.52 208.741 233.048 203.877C242.528 195.121 253.351 192.717 265.49 189.19C267.62 188.533 269.75 187.876 271.945 187.199C292.504 181.128 292.504 181.128 301.903 184.442Z" fill="black"/>
<path d="M68.8552 290.454C86.3771 288.359 97.9959 295.543 112.835 303.975C124.37 309.01 138.817 309.339 150.638 304.772C154.884 302.748 159.046 300.612 163.2 298.405C178.73 290.296 192.663 286.161 210.097 290.454C220.121 294.044 229.227 299.146 238.345 304.589C247.061 308.95 258.929 308.195 268.359 306.356C274.144 304.13 279.551 301.311 285.021 298.405C302.539 289.244 316.677 286.473 336.179 292.235C343.711 295.208 350.415 298.705 357.262 303.036C363.774 306.76 369.935 307.777 377.379 307.791C379.298 307.805 379.298 307.805 381.255 307.819C394.088 307.315 404.385 302.32 415.453 296.112C425.269 290.719 431.933 289.653 443.145 290.454C443.145 292.786 443.145 295.119 443.145 297.521C442.137 297.72 441.128 297.918 440.09 298.122C429.948 300.591 422.199 304.661 413.793 310.773C396.968 322.825 383.081 326.454 362.264 324.696C355.864 323.584 350.523 320.869 344.828 317.841C332.135 311.165 321.455 308.575 307.2 311.656C299.965 314.533 293.316 318.315 286.676 322.354C272.342 330.623 256.304 331.898 240.11 329.325C231.193 326.515 223.386 321.74 215.393 316.957C203.622 310.298 193.392 309.672 180.083 311.656C175.679 313.591 171.595 315.555 167.393 317.841C152.338 325.852 136.804 326.993 120.055 324.025C110.262 320.643 103.121 315.647 95.4483 308.785C87.4688 302.592 78.4679 300.308 68.8552 297.521C68.8552 295.189 68.8552 292.857 68.8552 290.454Z" fill="black"/>
<path d="M218.759 256.497C219.979 257.208 221.198 257.918 222.455 258.65C223.857 259.434 225.259 260.217 226.703 261.025C229.398 262.53 232.078 264.062 234.738 265.628C245.347 271.089 259.102 270.907 270.559 268.375C278.411 265.576 285.593 261.42 292.766 257.208C305.397 250.331 317.825 249.423 331.821 252.86C341.008 256.023 349.102 260.066 357.069 265.628C366.889 271.516 381.006 271.379 391.945 269.252C398.18 266.846 403.91 263.57 409.726 260.3C420.649 254.349 430.699 253.008 443.145 253.35C442.724 256.718 442.724 256.718 441.379 260.417C438.103 262.018 438.103 262.018 433.986 263.067C426.526 265.263 421.272 268.228 414.897 272.785C397.791 283.884 381.023 291.058 360.166 286.92C353.126 284.439 346.438 281.273 339.829 277.814C329.023 272.318 319.816 270.996 307.952 273.896C306.721 274.441 305.489 274.985 304.221 275.546C302.746 276.177 301.271 276.808 299.752 277.458C296.159 279.21 292.635 281.104 289.159 283.076C272.758 292.188 258.51 295.218 239.703 291.427C234.094 289.548 229.239 286.76 224.11 283.814C208.725 275.325 196.285 271.438 178.317 274.552C170.245 277.428 162.89 281.084 155.366 285.153C143.106 289.243 126.718 288.577 114.759 283.386C108.095 279.539 101.728 275.301 95.338 271.018C86.8577 265.685 78.2836 261.961 68.8552 258.65C68.8552 256.901 68.8552 255.152 68.8552 253.35C85.1373 250.911 95.5191 256.238 109.131 264.22C120.154 270.615 132.282 271.593 144.772 269.252C153.704 266.088 161.855 261.363 170.089 256.731C185.061 248.488 203.626 248.586 218.759 256.497Z" fill="black"/>
<path d="M122.007 251.065C123.742 251.082 125.478 251.099 127.265 251.117C129.074 251.161 130.882 251.206 132.745 251.252C134.573 251.275 136.402 251.299 138.286 251.324C142.803 251.386 147.318 251.474 151.834 251.583C151.834 252.749 151.834 253.915 151.834 255.117C138.449 261.183 126.088 262.534 111.779 258.65C109.758 257.776 109.758 257.776 107.697 256.883C112.106 251.347 115.064 250.945 122.007 251.065Z" fill="black"/>
</g>
<defs>
<clipPath id="clip0_9_3">
<rect width="500" height="500" fill="white"/>
</clipPath>
</defs>
</svg>
