<svg width="500" height="500" viewBox="0 0 500 500" fill="none" xmlns="http://www.w3.org/2000/svg">
<g clip-path="url(#clip0_12_104)">
<rect width="500" height="500" fill="white"/>
<path d="M293.407 170.969C295.945 171.304 295.945 171.304 298.534 171.646C322.257 174.927 322.257 174.927 328.386 182.675C330.309 186.524 330.646 189.248 331.096 193.511C331.327 195.646 331.327 195.646 331.562 197.824C331.792 200.055 331.792 200.055 332.027 202.331C332.188 203.832 332.348 205.333 332.514 206.88C332.909 210.59 333.297 214.301 333.683 218.012C334.324 216.946 334.966 215.88 335.627 214.782C341.937 204.744 346.967 198.206 358.179 193.718C370.144 192.309 376.953 192.526 386.952 199.46C394.225 205.433 400.026 211.808 401.193 221.512C401.542 231.903 399.715 239.472 393.71 248.049C384.174 257.115 376.344 259.548 363.393 259.34C353.409 257.96 345.556 251.959 338.979 244.515C338.396 242.766 337.814 241.017 337.214 239.215C336.631 240.964 336.048 242.713 335.448 244.515C333.243 244.102 333.243 244.102 330.993 243.68C309.262 240.381 294.295 241.823 275.42 253.35C263.114 260.321 250.38 260.039 236.579 258.65C230.841 256.907 225.81 254.694 220.689 251.583C220.689 250.417 220.689 249.251 220.689 248.049C222.512 247.555 224.335 247.061 226.214 246.551C244.067 241.669 261.794 236.448 279.469 230.953C281.112 230.445 282.755 229.937 284.448 229.414C285.901 228.961 287.353 228.509 288.85 228.042C293.143 226.827 297.528 225.955 301.903 225.08C301.903 217.5 301.903 209.92 301.903 202.11C297.469 201.69 297.469 201.69 292.945 201.262C289.052 200.847 285.161 200.431 281.269 200.012C279.322 199.833 277.375 199.655 275.369 199.47C259.218 197.664 259.218 197.664 253.82 192.586C249.662 186.436 249.513 182.885 250.703 175.607C258.402 162.542 280.653 169.162 293.407 170.969Z" fill="black"/>
<path d="M68.8555 290.454C86.3773 288.359 97.9961 295.543 112.835 303.975C124.37 309.01 138.818 309.339 150.638 304.772C154.884 302.748 159.046 300.612 163.2 298.405C178.73 290.296 192.663 286.161 210.097 290.454C220.121 294.044 229.227 299.146 238.345 304.589C247.061 308.95 258.93 308.195 268.359 306.356C274.144 304.13 279.551 301.311 285.021 298.405C302.54 289.244 316.677 286.473 336.18 292.235C343.711 295.208 350.415 298.705 357.262 303.036C363.774 306.76 369.936 307.777 377.38 307.791C379.298 307.805 379.298 307.805 381.255 307.819C394.088 307.315 404.385 302.32 415.454 296.112C425.269 290.719 431.933 289.653 443.145 290.454C443.145 292.786 443.145 295.119 443.145 297.521C442.137 297.72 441.129 297.918 440.09 298.122C429.948 300.591 422.2 304.661 413.793 310.773C396.968 322.825 383.081 326.454 362.264 324.696C355.865 323.584 350.523 320.869 344.828 317.841C332.136 311.165 321.455 308.575 307.2 311.656C299.965 314.533 293.316 318.315 286.676 322.354C272.342 330.623 256.304 331.898 240.111 329.325C231.193 326.515 223.386 321.74 215.393 316.957C203.622 310.298 193.393 309.672 180.083 311.656C175.679 313.591 171.595 315.555 167.393 317.841C152.338 325.852 136.804 326.993 120.055 324.025C110.262 320.643 103.121 315.647 95.4486 308.785C87.4691 302.592 78.4681 300.308 68.8555 297.521C68.8555 295.189 68.8555 292.857 68.8555 290.454Z" fill="black"/>
<path d="M220.242 256.497C225.442 259.311 230.457 262.32 235.359 265.628C245.034 271.643 257.481 270.457 268.359 269.252C275.903 266.486 282.629 262.716 289.545 258.65C303.574 250.744 317.476 248.707 333.283 252.873C341.842 256.102 349.48 260.451 357.007 265.628C366.922 271.456 380.936 271.392 391.945 269.252C398.181 266.846 403.91 263.57 409.726 260.3C420.649 254.349 430.699 253.008 443.145 253.35C442.745 256.745 442.745 256.745 441.38 260.417C438.028 261.77 438.028 261.77 433.655 262.626C425.74 264.665 420.568 267.655 414.124 272.675C399.564 283.756 385.429 288.513 367.035 288.107C357.156 286.4 348.679 282.444 339.827 277.815C329.024 272.315 319.815 270.996 307.952 273.896C306.721 274.441 305.49 274.985 304.221 275.546C302.746 276.177 301.271 276.808 299.752 277.458C296.16 279.21 292.636 281.104 289.159 283.076C272.758 292.188 258.51 295.218 239.704 291.427C234.094 289.548 229.239 286.76 224.111 283.814C208.725 275.325 196.285 271.438 178.318 274.552C170.246 277.428 162.89 281.084 155.366 285.153C143.106 289.243 126.718 288.577 114.759 283.387C108.096 279.539 101.728 275.301 95.3382 271.018C86.8579 265.685 78.2838 261.961 68.8555 258.65C68.8555 256.901 68.8555 255.152 68.8555 253.35C85.1376 250.911 95.5193 256.238 109.131 264.22C120.547 270.843 133.682 271.795 146.538 269.252C156.127 265.642 164.926 260.39 173.616 255.01C187.266 247.292 206.61 250.204 220.242 256.497Z" fill="black"/>
</g>
<defs>
<clipPath id="clip0_12_104">
<rect width="500" height="500" fill="white"/>
</clipPath>
</defs>
</svg>
