<svg width="500" height="500" viewBox="0 0 500 500" fill="none" xmlns="http://www.w3.org/2000/svg">
<g clip-path="url(#clip0_12_121)">
<rect width="500" height="500" fill="white"/>
<path d="M349.572 138.503C355.409 144.561 357.712 149.467 359.255 157.676C359.63 159.617 360.006 161.557 360.393 163.557C360.755 165.566 361.117 167.574 361.489 169.644C361.879 171.667 362.268 173.689 362.669 175.773C365.462 190.531 365.462 190.531 365.462 196.81C368.193 196.646 368.193 196.646 370.979 196.479C379.724 196.902 385.072 198.805 391.365 205.03C399.325 214.001 401.509 220.782 401.386 232.789C400.115 242.435 394.749 248.896 387.903 255.455C379.313 261.19 370.096 260.009 360.165 258.65C352.783 256.1 345.245 253.105 340.152 246.979C331.062 239.356 311.673 241.497 300.129 242.241C290.975 243.56 283.186 248.607 275.42 253.35C263.114 260.321 250.38 260.039 236.579 258.65C230.841 256.907 225.81 254.694 220.689 251.583C220.689 250.417 220.689 249.251 220.689 248.049C221.958 247.873 223.226 247.698 224.533 247.517C238.301 245.438 251.16 241.97 264.386 237.669C276.267 233.83 287.867 230.178 300.174 228.035C314.154 225.491 320.476 220.203 328.848 209.394C335.534 199.549 334.46 190.649 332.524 179.59C332.032 177.437 331.541 175.285 331.034 173.067C328.921 163.084 327.05 153.998 328.386 143.804C334.67 135.8 340.123 135.58 349.572 138.503Z" fill="black"/>
<path d="M68.8555 290.454C86.3773 288.359 97.9961 295.543 112.835 303.975C124.37 309.01 138.818 309.339 150.638 304.772C154.884 302.748 159.046 300.612 163.2 298.405C178.73 290.296 192.663 286.161 210.097 290.454C220.121 294.044 229.227 299.146 238.345 304.589C247.226 309.033 260.502 308.039 270.124 306.356C279.642 302.965 288.038 297.482 296.607 292.221C312.917 286.78 331.278 289.507 346.49 296.666C350.159 298.65 353.737 300.806 357.262 303.036C363.774 306.76 369.936 307.777 377.38 307.791C379.298 307.805 379.298 307.805 381.255 307.819C394.088 307.315 404.385 302.32 415.454 296.112C425.269 290.719 431.933 289.653 443.145 290.454C443.145 292.786 443.145 295.119 443.145 297.521C442.137 297.72 441.129 297.918 440.09 298.122C429.948 300.591 422.2 304.661 413.793 310.773C396.968 322.825 383.081 326.454 362.264 324.696C355.865 323.584 350.523 320.869 344.828 317.841C332.136 311.165 321.455 308.575 307.2 311.656C299.965 314.533 293.316 318.315 286.676 322.354C272.342 330.623 256.304 331.898 240.111 329.325C231.193 326.515 223.386 321.74 215.393 316.957C203.622 310.298 193.393 309.672 180.083 311.656C175.679 313.591 171.595 315.555 167.393 317.841C152.338 325.852 136.804 326.993 120.055 324.025C110.262 320.643 103.121 315.647 95.4486 308.785C87.4691 302.592 78.4681 300.308 68.8555 297.521C68.8555 295.189 68.8555 292.857 68.8555 290.454Z" fill="black"/>
<path d="M220.242 256.497C225.442 259.311 230.457 262.32 235.359 265.628C245.179 271.734 259.734 270.722 270.683 268.375C278.485 265.583 285.636 261.395 292.766 257.208C305.605 250.218 319.095 249.173 333.311 252.86C341.846 256.126 349.486 260.455 357.007 265.628C366.773 271.368 379.292 270.168 390.18 269.252C398.9 266.925 406.17 263.284 413.683 258.319C422.406 252.942 433.197 253.649 443.145 253.35C442.745 256.745 442.745 256.745 441.38 260.417C438.028 261.77 438.028 261.77 433.655 262.626C425.74 264.665 420.568 267.655 414.124 272.675C399.564 283.756 385.429 288.513 367.035 288.107C357.156 286.4 348.679 282.444 339.827 277.815C329.024 272.315 319.815 270.996 307.952 273.896C306.721 274.441 305.49 274.985 304.221 275.546C302.746 276.177 301.271 276.808 299.752 277.458C296.16 279.21 292.636 281.104 289.159 283.076C272.758 292.188 258.51 295.218 239.704 291.427C234.094 289.548 229.239 286.76 224.111 283.814C208.725 275.325 196.285 271.438 178.318 274.552C170.246 277.428 162.89 281.084 155.366 285.153C143.106 289.243 126.718 288.577 114.759 283.386C108.096 279.539 101.728 275.301 95.3382 271.018C86.8579 265.685 78.2838 261.961 68.8555 258.65C68.8555 256.901 68.8555 255.152 68.8555 253.35C85.1376 250.911 95.5193 256.238 109.131 264.22C120.154 270.615 132.283 271.593 144.773 269.252C153.704 266.088 161.855 261.363 170.089 256.731C185.678 248.149 204.303 249.139 220.242 256.497Z" fill="black"/>
<path d="M121.82 244.184C123.35 244.195 124.879 244.207 126.455 244.219C130.648 244.515 130.648 244.515 135.944 246.282C139.579 246.677 143.222 247.001 146.868 247.276C148.787 247.424 150.706 247.572 152.682 247.725C154.884 247.885 154.884 247.885 157.131 248.049C157.131 249.215 157.131 250.381 157.131 251.583C146.457 257.798 137.816 259.334 125.682 259.313C123.72 259.316 123.72 259.316 121.717 259.32C115.056 259.186 109.815 258.827 104.165 255.117C107.998 246.265 112.346 244.029 121.82 244.184Z" fill="black"/>
<path d="M333.683 138.503C334.848 139.086 336.013 139.669 337.214 140.27C338.317 144.798 338.317 144.798 338.979 149.104C337.231 148.521 335.483 147.938 333.683 147.337C334.229 150.071 334.229 150.071 334.786 152.859C335.469 159.924 334.599 163.835 331.917 170.307C331.334 170.307 330.752 170.307 330.151 170.307C328.861 164.011 328.154 157.837 327.945 151.423C327.899 150.105 327.854 148.786 327.807 147.427C328.531 142.894 330.213 141.381 333.683 138.503Z" fill="black"/>
<path d="M335.448 177.374C338.096 179.362 338.096 179.362 340.745 182.675C341.407 187.975 341.407 187.975 340.745 193.276C338.055 196.258 338.055 196.258 335.448 198.577C335.106 195.375 334.777 192.173 334.455 188.969C334.271 187.186 334.086 185.403 333.896 183.565C333.826 182.105 333.755 180.645 333.683 179.141C334.265 178.558 334.848 177.975 335.448 177.374Z" fill="black"/>
</g>
<defs>
<clipPath id="clip0_12_121">
<rect width="500" height="500" fill="white"/>
</clipPath>
</defs>
</svg>
