<svg width="500" height="500" viewBox="0 0 500 500" fill="none" xmlns="http://www.w3.org/2000/svg">
<g clip-path="url(#clip0_12_138)">
<rect width="500" height="500" fill="white"/>
<path d="M220.242 256.497C225.442 259.311 230.457 262.32 235.359 265.628C245.034 271.643 257.481 270.457 268.359 269.252C275.903 266.486 282.629 262.716 289.545 258.65C303.574 250.744 317.476 248.707 333.283 252.873C341.842 256.102 349.48 260.451 357.007 265.628C366.773 271.368 379.292 270.168 390.18 269.252C398.9 266.925 406.17 263.284 413.683 258.319C422.406 252.942 433.197 253.649 443.145 253.35C442.745 256.745 442.745 256.745 441.38 260.417C438.028 261.77 438.028 261.77 433.655 262.626C425.74 264.665 420.568 267.655 414.124 272.675C399.391 283.888 385.344 288.416 366.759 287.99C359.062 286.741 353.105 284.13 346.152 280.736C332.487 274.183 320.679 271.262 305.435 274.552C295.903 278.342 287.065 283.403 278.357 288.794C267.691 294.825 251.448 293.684 239.628 291.469C234.084 289.494 229.215 286.746 224.111 283.814C208.725 275.325 196.285 271.438 178.318 274.552C170.246 277.428 162.89 281.084 155.366 285.153C143.106 289.243 126.718 288.577 114.759 283.386C108.096 279.539 101.728 275.301 95.3382 271.018C86.8579 265.685 78.2838 261.961 68.8555 258.65C68.8555 256.901 68.8555 255.152 68.8555 253.35C85.1376 250.911 95.5193 256.238 109.131 264.22C120.154 270.615 132.283 271.593 144.773 269.252C153.704 266.088 161.855 261.363 170.089 256.731C185.678 248.149 204.303 249.139 220.242 256.497Z" fill="black"/>
<path d="M68.8555 290.454C86.3773 288.359 97.9961 295.543 112.835 303.975C124.37 309.01 138.818 309.339 150.638 304.772C154.884 302.748 159.046 300.612 163.2 298.405C178.73 290.296 192.663 286.161 210.097 290.454C220.121 294.044 229.227 299.146 238.345 304.589C247.061 308.95 258.93 308.195 268.359 306.356C274.144 304.13 279.551 301.311 285.021 298.405C302.54 289.244 316.677 286.473 336.18 292.235C343.711 295.208 350.415 298.705 357.262 303.036C363.774 306.76 369.936 307.777 377.38 307.791C379.298 307.805 379.298 307.805 381.255 307.819C394.088 307.315 404.385 302.32 415.454 296.112C425.269 290.719 431.933 289.653 443.145 290.454C443.145 292.786 443.145 295.119 443.145 297.521C442.137 297.72 441.129 297.918 440.09 298.122C429.948 300.591 422.2 304.661 413.793 310.773C396.968 322.825 383.081 326.454 362.264 324.696C355.865 323.584 350.523 320.869 344.828 317.841C332.136 311.165 321.455 308.575 307.2 311.656C299.965 314.533 293.316 318.315 286.676 322.354C272.342 330.623 256.304 331.898 240.111 329.325C231.193 326.515 223.386 321.74 215.393 316.957C203.622 310.298 193.393 309.672 180.083 311.656C175.679 313.591 171.595 315.555 167.393 317.841C152.338 325.852 136.804 326.993 120.055 324.025C110.262 320.643 103.121 315.647 95.4486 308.785C87.4691 302.592 78.4681 300.308 68.8555 297.521C68.8555 295.189 68.8555 292.857 68.8555 290.454Z" fill="black"/>
<path d="M377.821 198.577C385.342 201.265 390.34 204.817 395.476 210.945C395.476 212.111 395.476 213.277 395.476 214.479C397.137 214.524 398.799 214.57 400.51 214.617C423.758 215.676 423.758 215.676 430.786 223.313C432.552 229.607 432.552 229.607 432.552 235.681C428.196 242.219 425.927 242.674 418.427 244.515C411.039 244.905 404.43 244.492 397.241 242.748C396.841 244.06 396.44 245.372 396.027 246.724C392.791 253.511 388.008 257.086 381.352 260.417C368.376 261.915 359.178 259.368 347.807 253.35C344.645 251.763 341.482 250.18 338.317 248.601C336.883 247.866 335.45 247.13 333.972 246.372C322.668 240.879 308.924 241.03 296.607 242.748C288.988 245.455 282.308 249.144 275.421 253.35C263.132 260.311 250.363 260.062 236.579 258.65C231.085 256.846 227.333 254.771 222.455 251.583C222.455 251 222.455 250.417 222.455 249.816C224.207 249.388 225.96 248.96 227.765 248.518C239.476 245.635 251.146 242.687 262.731 239.325C305.834 226.853 305.834 226.853 326.007 223.948C329.828 223.362 333.483 222.551 337.214 221.546C337.436 219.564 337.436 219.564 337.662 217.543C339.256 211.696 341.292 209.88 345.931 206.086C347.185 205.038 348.439 203.99 349.731 202.911C358.105 196.536 367.691 197.834 377.821 198.577Z" fill="black"/>
<path d="M137.387 239.38C140.186 240.187 142.979 241.016 145.766 241.865C147.21 242.286 148.654 242.708 150.142 243.142C153.654 244.17 157.159 245.223 160.662 246.282C154.627 253.019 148.534 257.907 139.324 259.146C135.204 259.361 131.132 259.374 127.007 259.313C125.613 259.333 124.219 259.354 122.783 259.375C114.501 259.333 109.224 258.543 102.4 253.35C102.884 247.542 103.845 244.886 107.697 240.429C117.115 235.128 127.175 236.745 137.387 239.38Z" fill="black"/>
</g>
<defs>
<clipPath id="clip0_12_138">
<rect width="500" height="500" fill="white"/>
</clipPath>
</defs>
</svg>
