<svg width="500" height="500" viewBox="0 0 500 500" fill="none" xmlns="http://www.w3.org/2000/svg">
<g clip-path="url(#clip0_12_155)">
<rect width="500" height="500" fill="white"/>
<path d="M68.8555 290.454C86.3773 288.359 97.9961 295.543 112.835 303.975C124.37 309.01 138.818 309.339 150.638 304.772C154.884 302.748 159.046 300.612 163.2 298.405C178.73 290.296 192.663 286.161 210.097 290.454C220.121 294.044 229.227 299.146 238.345 304.589C247.226 309.033 260.502 308.039 270.124 306.356C279.642 302.965 288.038 297.482 296.607 292.221C312.917 286.78 331.278 289.507 346.49 296.666C350.159 298.65 353.737 300.806 357.262 303.036C363.774 306.76 369.936 307.777 377.38 307.791C379.298 307.805 379.298 307.805 381.255 307.819C394.088 307.315 404.385 302.32 415.454 296.112C425.269 290.719 431.933 289.653 443.145 290.454C443.145 292.786 443.145 295.119 443.145 297.521C442.137 297.72 441.129 297.918 440.09 298.122C429.948 300.591 422.2 304.661 413.793 310.773C396.968 322.825 383.081 326.454 362.264 324.696C355.865 323.584 350.523 320.869 344.828 317.841C332.136 311.165 321.455 308.575 307.2 311.656C299.965 314.533 293.316 318.315 286.676 322.354C272.342 330.623 256.304 331.898 240.111 329.325C231.193 326.515 223.386 321.74 215.393 316.957C203.622 310.298 193.393 309.672 180.083 311.656C175.679 313.591 171.595 315.555 167.393 317.841C152.338 325.852 136.804 326.993 120.055 324.025C110.262 320.643 103.121 315.647 95.4486 308.785C87.4691 302.592 78.4681 300.308 68.8555 297.521C68.8555 295.189 68.8555 292.857 68.8555 290.454Z" fill="black"/>
<path d="M220.242 256.497C225.442 259.311 230.457 262.32 235.359 265.628C245.179 271.734 259.734 270.722 270.683 268.375C278.485 265.583 285.636 261.395 292.766 257.208C305.605 250.218 319.095 249.173 333.311 252.86C341.846 256.126 349.486 260.455 357.007 265.628C367.324 271.692 382.21 271.604 393.711 269.252C400.492 266.493 406.68 262.773 412.963 259.042C423.123 253.166 431.363 251.287 443.145 253.35C442.745 256.745 442.745 256.745 441.38 260.417C438.028 261.77 438.028 261.77 433.655 262.626C425.74 264.665 420.568 267.655 414.124 272.675C399.564 283.756 385.429 288.513 367.035 288.107C357.156 286.4 348.679 282.444 339.827 277.815C329.024 272.315 319.815 270.996 307.952 273.896C306.721 274.441 305.49 274.985 304.221 275.546C302.746 276.177 301.271 276.808 299.752 277.458C296.16 279.21 292.636 281.104 289.159 283.076C272.758 292.188 258.51 295.218 239.704 291.427C234.094 289.548 229.239 286.76 224.111 283.814C208.725 275.325 196.285 271.438 178.318 274.552C170.246 277.428 162.89 281.084 155.366 285.153C143.106 289.243 126.718 288.577 114.759 283.386C108.096 279.539 101.728 275.301 95.3382 271.018C86.8579 265.685 78.2838 261.961 68.8555 258.65C68.8555 256.901 68.8555 255.152 68.8555 253.35C85.1376 250.911 95.5193 256.238 109.131 264.22C120.154 270.615 132.283 271.593 144.773 269.252C153.704 266.088 161.855 261.363 170.089 256.731C185.678 248.149 204.303 249.139 220.242 256.497Z" fill="black"/>
<path d="M379.586 196.81C388.432 200.689 395.392 207.599 399.662 216.28C402.364 224.796 402.659 233.247 398.966 241.472C396.793 245.009 394.473 248.293 391.945 251.583C390.998 253.004 390.051 254.425 389.076 255.89C385.734 259.691 382.453 260.296 377.531 260.838C365.859 261.19 358.038 258.764 347.807 253.35C344.646 251.763 341.482 250.18 338.317 248.601C336.167 247.498 336.167 247.498 333.972 246.372C322.666 240.878 308.927 241.033 296.607 242.748C288.942 245.445 282.347 249.148 275.421 253.35C267.113 258.256 260.32 259.475 250.814 259.313C249.618 259.333 248.422 259.354 247.19 259.375C238.198 259.323 232.121 257.246 224.221 253.35C224.221 252.184 224.221 251.017 224.221 249.816C226.478 249.452 228.736 249.087 231.062 248.712C242.522 245.022 247.373 235.486 253.6 225.867C257.43 220.13 261.094 215.227 266.593 210.945C277.176 209.239 285.826 212.953 295.503 216.798C298.348 217.897 301.194 218.995 304.041 220.09C306.133 220.902 306.133 220.902 308.267 221.73C313.73 223.775 319.258 225.579 324.818 227.338C328.538 228.668 331.953 230.313 335.448 232.147C335.339 230.325 335.23 228.503 335.117 226.626C335.541 217.867 337.425 212.47 343.724 206.224C355.197 196.177 364.244 194.942 379.586 196.81Z" fill="black"/>
<path d="M137.71 249.816C143.007 253.46 143.007 253.46 146.538 256.883C135.387 260.682 124.385 262.451 112.993 258.65C114.611 254.602 115.979 252.024 119.393 249.264C125.702 247.436 131.484 248.052 137.71 249.816Z" fill="black"/>
</g>
<defs>
<clipPath id="clip0_12_155">
<rect width="500" height="500" fill="white"/>
</clipPath>
</defs>
</svg>
