<svg width="500" height="500" viewBox="0 0 500 500" fill="none" xmlns="http://www.w3.org/2000/svg">
<g clip-path="url(#clip0_12_172)">
<rect width="500" height="500" fill="white"/>
<path d="M293.076 187.975C300.918 193.101 306.553 199.841 312.6 206.949C317.835 213.052 323.283 218.961 328.703 224.9C331.917 228.613 331.917 228.613 333.683 232.147C333.708 231.163 333.733 230.179 333.758 229.166C334.44 218.246 337.158 210.506 344.276 202.11C352.773 195.477 359.548 192.593 370.434 192.793C382.021 194.245 389.759 200.86 397.014 209.564C401.616 216.831 401.863 225.541 400.772 233.914C397.148 244.796 391.555 251.21 381.641 257.015C372.881 260.765 362.588 260.216 353.765 256.918C348.085 254.031 342.583 250.906 337.103 247.656C324.663 241.077 310.335 240.401 296.607 242.748C289.007 245.493 282.304 249.146 275.42 253.35C263.114 260.321 250.38 260.039 236.579 258.65C230.841 256.907 225.81 254.694 220.689 251.583C220.689 250.417 220.689 249.251 220.689 248.049C222.598 247.53 222.598 247.53 224.545 247C246.406 240.907 267.957 233.839 289.545 226.847C288.379 225.097 287.214 223.348 286.014 221.546C274.909 222.654 266.252 227.487 256.489 232.51C248.987 236.223 243.397 238.563 234.814 237.448C230.62 234.798 230.62 234.798 227.752 230.38C226.667 225.429 226.224 221.106 227.752 216.245C236.686 208.368 246.876 203.472 257.434 198.135C259.297 197.156 261.16 196.176 263.079 195.167C273.566 189.858 281.276 186.308 293.076 187.975Z" fill="black"/>
<path d="M68.8555 290.454C86.3773 288.359 97.9961 295.543 112.835 303.975C124.37 309.01 138.818 309.339 150.638 304.772C154.884 302.748 159.046 300.612 163.2 298.405C178.73 290.296 192.663 286.161 210.097 290.454C220.121 294.044 229.227 299.146 238.345 304.589C247.226 309.033 260.502 308.039 270.124 306.356C279.642 302.965 288.038 297.482 296.607 292.221C312.917 286.78 331.278 289.507 346.49 296.666C350.159 298.65 353.737 300.806 357.262 303.036C363.774 306.76 369.936 307.777 377.38 307.791C379.298 307.805 379.298 307.805 381.255 307.819C394.088 307.315 404.385 302.32 415.454 296.112C425.269 290.719 431.933 289.653 443.145 290.454C443.145 292.786 443.145 295.119 443.145 297.521C442.137 297.72 441.129 297.918 440.09 298.122C429.948 300.591 422.2 304.661 413.793 310.773C396.968 322.825 383.081 326.454 362.264 324.696C355.865 323.584 350.523 320.869 344.828 317.841C332.136 311.165 321.455 308.575 307.2 311.656C299.965 314.533 293.316 318.315 286.676 322.354C272.342 330.623 256.304 331.898 240.111 329.325C231.193 326.515 223.386 321.74 215.393 316.957C203.622 310.298 193.393 309.672 180.083 311.656C175.679 313.591 171.595 315.555 167.393 317.841C152.338 325.852 136.804 326.993 120.055 324.025C110.262 320.643 103.121 315.647 95.4486 308.785C87.4691 302.592 78.4681 300.308 68.8555 297.521C68.8555 295.189 68.8555 292.857 68.8555 290.454Z" fill="black"/>
<path d="M220.242 256.497C225.442 259.311 230.457 262.32 235.359 265.628C245.034 271.643 257.481 270.457 268.359 269.252C275.903 266.486 282.629 262.716 289.545 258.65C303.574 250.744 317.476 248.707 333.283 252.873C341.842 256.102 349.48 260.451 357.007 265.628C366.778 271.371 379.287 270.158 390.18 269.252C399.591 266.797 407.464 262.427 415.669 257.325C424.612 252.081 433.046 252.5 443.145 253.35C442.745 256.745 442.745 256.745 441.38 260.417C438.028 261.77 438.028 261.77 433.655 262.626C425.74 264.665 420.568 267.655 414.124 272.675C399.564 283.756 385.429 288.513 367.035 288.107C357.156 286.4 348.679 282.444 339.827 277.815C329.024 272.315 319.815 270.996 307.952 273.896C306.721 274.441 305.49 274.985 304.221 275.546C302.746 276.177 301.271 276.808 299.752 277.458C296.16 279.21 292.636 281.104 289.159 283.076C272.758 292.188 258.51 295.218 239.704 291.427C234.094 289.548 229.239 286.76 224.111 283.814C208.725 275.325 196.285 271.438 178.318 274.552C170.246 277.428 162.89 281.084 155.366 285.153C143.106 289.243 126.718 288.577 114.759 283.386C108.096 279.539 101.728 275.301 95.3382 271.018C86.8579 265.685 78.2838 261.961 68.8555 258.65C68.8555 256.901 68.8555 255.152 68.8555 253.35C85.1376 250.911 95.5193 256.238 109.131 264.22C120.154 270.615 132.283 271.593 144.773 269.252C153.704 266.088 161.855 261.363 170.089 256.731C185.678 248.149 204.303 249.139 220.242 256.497Z" fill="black"/>
</g>
<defs>
<clipPath id="clip0_12_172">
<rect width="500" height="500" fill="white"/>
</clipPath>
</defs>
</svg>
