<svg width="500" height="500" viewBox="0 0 500 500" fill="none" xmlns="http://www.w3.org/2000/svg">
<g clip-path="url(#clip0_6_278)">
<rect width="500" height="500" fill="white"/>
<path d="M316.027 149.104C319.337 151.409 319.337 151.409 322.634 154.453C323.856 155.574 325.078 156.696 326.337 157.851C327.596 159.046 328.855 160.241 330.152 161.472C331.391 162.645 332.63 163.817 333.907 165.025C337.659 168.626 341.359 172.274 345.048 175.939C346.317 177.172 347.586 178.405 348.893 179.676C350.098 180.873 351.303 182.07 352.545 183.303C353.629 184.372 354.713 185.44 355.831 186.541C358.602 189.994 359.451 192.481 360.165 196.81C362.205 196.664 364.244 196.518 366.345 196.368C376.508 196.422 384.25 199.9 391.593 206.914C398.703 214.93 401.348 220.753 401.145 231.816C400.233 241.282 397.383 248.778 390.069 255.006C381.529 261.007 375.72 261.297 365.462 260.417C356.942 258.642 350.881 256.212 344.165 250.589C332.216 240.666 315.047 241.102 300.101 242.213C290.966 243.613 283.186 248.607 275.421 253.35C263.132 260.311 250.363 260.062 236.579 258.65C231.085 256.846 227.333 254.771 222.455 251.583C222.455 251 222.455 250.417 222.455 249.816C223.714 249.497 224.973 249.178 226.271 248.849C249.15 243.031 271.97 237.151 294.519 230.145C295.841 229.735 297.162 229.325 298.524 228.903C299.734 228.519 300.944 228.134 302.19 227.738C305.434 226.847 305.434 226.847 310.379 226.453C314.933 225.291 314.933 225.291 317.827 219.496C318.915 217.213 319.97 214.914 320.993 212.601C321.543 211.429 322.092 210.258 322.659 209.05C324.008 206.161 325.318 203.254 326.621 200.344C325.783 199.515 324.946 198.686 324.084 197.833C320.29 194.073 316.504 190.307 312.717 186.54C310.741 184.584 310.741 184.584 308.724 182.589C306.829 180.701 306.829 180.701 304.896 178.775C303.732 177.619 302.567 176.462 301.366 175.27C298.372 172.074 298.372 172.074 294.841 166.773C295.157 160.881 295.625 156.196 298.483 150.982C304.331 147.772 309.706 147.52 316.027 149.104Z" fill="black"/>
<path d="M68.8552 290.454C86.3771 288.359 97.9959 295.543 112.835 303.975C124.37 309.01 138.817 309.339 150.638 304.772C154.884 302.748 159.046 300.612 163.2 298.405C178.73 290.296 192.663 286.161 210.097 290.454C220.121 294.044 229.227 299.146 238.345 304.589C247.061 308.95 258.929 308.195 268.359 306.356C274.144 304.13 279.551 301.311 285.021 298.405C302.54 289.244 316.677 286.473 336.179 292.235C343.711 295.208 350.415 298.705 357.262 303.036C363.774 306.76 369.935 307.777 377.379 307.791C379.298 307.805 379.298 307.805 381.255 307.819C394.088 307.315 404.385 302.32 415.454 296.112C425.269 290.719 431.933 289.652 443.145 290.454C443.145 292.786 443.145 295.119 443.145 297.521C442.137 297.72 441.128 297.918 440.09 298.122C429.948 300.591 422.199 304.661 413.793 310.773C396.968 322.824 383.081 326.454 362.264 324.696C355.864 323.584 350.523 320.869 344.828 317.84C332.135 311.165 321.455 308.575 307.2 311.656C299.965 314.533 293.316 318.315 286.676 322.354C272.342 330.623 256.304 331.898 240.11 329.325C231.193 326.515 223.386 321.74 215.393 316.957C203.622 310.298 193.392 309.672 180.083 311.656C175.679 313.591 171.595 315.555 167.393 317.84C152.338 325.852 136.804 326.993 120.055 324.025C110.262 320.643 103.121 315.647 95.4483 308.785C87.4688 302.592 78.4679 300.308 68.8552 297.521C68.8552 295.189 68.8552 292.857 68.8552 290.454Z" fill="black"/>
<path d="M214.731 254.454C219.019 256.655 223.156 259.058 227.324 261.48C240.669 268.837 251.368 271.549 266.593 269.252C272.322 267.537 277.265 265.078 282.483 262.184C285.641 260.592 288.805 259.009 291.972 257.436C293.406 256.7 294.84 255.964 296.317 255.206C307.661 249.694 321.218 249.739 333.324 252.853C341.848 256.138 349.488 260.457 357.007 265.628C366.777 271.371 379.287 270.158 390.179 269.252C399.59 266.797 407.464 262.427 415.669 257.325C424.612 252.081 433.045 252.5 443.145 253.35C442.745 256.745 442.745 256.745 441.379 260.417C438.028 261.77 438.028 261.77 433.655 262.626C425.74 264.665 420.568 267.655 414.124 272.675C399.564 283.756 385.428 288.513 367.035 288.107C357.156 286.4 348.679 282.444 339.827 277.815C329.024 272.315 319.815 270.996 307.952 273.896C306.721 274.441 305.489 274.985 304.221 275.546C302.746 276.177 301.271 276.808 299.752 277.458C296.159 279.21 292.635 281.104 289.159 283.076C272.758 292.188 258.51 295.218 239.704 291.427C234.094 289.548 229.239 286.76 224.11 283.814C208.725 275.325 196.285 271.438 178.317 274.552C170.245 277.428 162.89 281.084 155.366 285.153C143.106 289.243 126.718 288.577 114.759 283.387C108.095 279.539 101.728 275.301 95.338 271.018C86.8577 265.685 78.2836 261.961 68.8552 258.65C68.8552 256.901 68.8552 255.152 68.8552 253.35C85.1373 250.911 95.5191 256.238 109.131 264.22C120.539 270.838 131.872 270.257 144.772 269.252C152.352 267.177 158.731 263.321 165.469 259.354C181.178 250.613 197.571 247.125 214.731 254.454Z" fill="black"/>
<path d="M160.662 246.282C160.662 247.448 160.662 248.614 160.662 249.816C157.576 251.259 154.485 252.693 151.393 254.123C149.673 254.922 147.952 255.722 146.179 256.545C135.472 261.11 123.398 262.95 112.235 258.837C108.882 257.147 105.629 255.265 102.4 253.35C103.058 248.575 103.819 246.614 107.352 243.232C121.45 235.047 145.499 243.505 160.662 246.282Z" fill="black"/>
<path d="M296.607 154.405C300.575 158.031 301.907 159.717 303.669 165.006C304.834 165.589 305.999 166.172 307.2 166.773C304.869 169.105 302.539 171.438 300.138 173.84C297.379 171.08 297.379 171.08 294.841 166.773C295.393 160.147 295.393 160.147 296.607 154.405Z" fill="black"/>
</g>
<defs>
<clipPath id="clip0_6_278">
<rect width="500" height="500" fill="white"/>
</clipPath>
</defs>
</svg>
