<svg width="500" height="500" viewBox="0 0 500 500" fill="none" xmlns="http://www.w3.org/2000/svg">
<g clip-path="url(#clip0_6_183)">
<rect width="500" height="500" fill="white"/>
<path d="M318.455 137.951C328.095 141.444 331.649 147.813 337.214 156.172C338.719 158.406 340.225 160.64 341.731 162.873C345.52 168.518 349.256 174.195 352.976 179.884C354.561 182.22 356.286 184.46 358.041 186.671C360.166 189.742 360.166 189.742 360.166 195.043C361.893 194.951 361.893 194.951 363.655 194.857C373.304 194.558 380.258 194.593 388.414 200.344C397.013 208.727 400.87 215.197 401.435 227.288C401.327 236.637 397.824 242.73 391.945 249.816C382.904 258.218 375.456 259.358 363.455 259.278C353.449 258.035 345.538 251.979 338.979 244.515C338.979 243.349 338.979 242.183 338.979 240.982C337.814 240.982 336.649 240.982 335.448 240.982C335.448 242.148 335.448 243.314 335.448 244.515C333.243 244.102 333.243 244.102 330.993 243.68C309.262 240.381 294.295 241.823 275.421 253.35C263.132 260.311 250.363 260.062 236.579 258.65C231.085 256.846 227.333 254.771 222.455 251.583C222.455 250.417 222.455 249.251 222.455 248.049C229.26 245.979 236.068 243.919 242.877 241.863C246.511 240.76 250.142 239.646 253.773 238.53C264.84 235.152 275.821 231.933 287.152 229.538C305.208 226.446 305.208 226.446 319.448 216.038C323.425 209.722 327.249 202.798 326.111 195.156C324.658 190.936 322.675 187.964 320.048 184.359C318.623 182.336 318.623 182.336 317.169 180.273C315.168 177.472 313.15 174.683 311.114 171.908C304.643 162.641 302.086 156.918 303.669 145.571C308.363 139.734 311.024 138.64 318.455 137.951Z" fill="black"/>
<path d="M220.248 256.497C225.404 259.292 230.354 262.304 235.186 265.628C244.918 271.349 257.533 270.54 268.359 269.252C275.862 266.44 282.625 262.666 289.545 258.65C303.582 250.753 317.468 248.705 333.283 252.873C341.841 256.102 349.48 260.451 357.007 265.628C366.773 271.368 379.292 270.168 390.179 269.252C398.9 266.925 406.17 263.284 413.683 258.319C422.406 252.942 433.197 253.649 443.145 253.35C442.745 256.745 442.745 256.745 441.379 260.417C438.028 261.77 438.028 261.77 433.655 262.626C425.74 264.665 420.568 267.655 414.124 272.675C399.391 283.888 385.344 288.416 366.759 287.99C359.062 286.741 353.105 284.13 346.152 280.736C332.487 274.183 320.679 271.262 305.435 274.552C295.902 278.342 287.064 283.403 278.357 288.794C267.691 294.825 251.448 293.684 239.628 291.469C234.084 289.494 229.215 286.746 224.11 283.814C208.725 275.325 196.285 271.438 178.317 274.552C170.245 277.428 162.89 281.084 155.366 285.153C143.106 289.243 126.718 288.577 114.759 283.387C108.095 279.539 101.728 275.301 95.338 271.018C86.8577 265.685 78.2836 261.961 68.8552 258.65C68.8552 256.901 68.8552 255.152 68.8552 253.35C85.1373 250.911 95.5191 256.238 109.131 264.22C120.547 270.843 133.682 271.795 146.538 269.252C156.126 265.642 164.925 260.39 173.616 255.01C187.271 247.288 206.609 250.211 220.248 256.497Z" fill="black"/>
<path d="M68.8552 290.454C86.3771 288.359 97.9959 295.543 112.835 303.975C124.37 309.01 138.817 309.339 150.638 304.772C154.884 302.748 159.046 300.612 163.2 298.405C178.73 290.296 192.663 286.161 210.097 290.454C220.121 294.044 229.227 299.146 238.345 304.589C247.226 309.033 260.502 308.039 270.124 306.356C279.642 302.965 288.038 297.482 296.607 292.221C311.359 287.3 329.961 288.924 343.931 295.361C347.807 297.521 347.807 297.521 351.352 299.958C363.13 307.823 375.719 308.842 389.502 307.251C398.802 305.272 407.209 300.735 415.454 296.113C425.269 290.718 431.933 289.653 443.145 290.454C443.145 292.786 443.145 295.119 443.145 297.521C442.137 297.72 441.128 297.918 440.09 298.122C429.948 300.591 422.199 304.661 413.793 310.773C396.968 322.825 383.081 326.454 362.264 324.696C355.864 323.584 350.523 320.869 344.828 317.841C332.134 311.164 321.456 308.578 307.2 311.656C299.912 314.53 293.195 318.306 286.504 322.354C272.071 330.928 256.556 331.809 240.11 329.325C231.151 326.571 223.38 321.792 215.393 316.957C203.627 310.292 193.388 309.673 180.083 311.656C175.679 313.591 171.595 315.555 167.393 317.841C152.338 325.852 136.804 326.993 120.055 324.025C110.262 320.643 103.121 315.647 95.4483 308.785C87.4688 302.592 78.4679 300.308 68.8552 297.521C68.8552 295.189 68.8552 292.857 68.8552 290.454Z" fill="black"/>
<path d="M321.324 168.54C321.907 172.038 322.489 175.537 323.09 179.141C324.255 179.141 325.42 179.141 326.621 179.141C326.038 182.056 325.455 184.972 324.855 187.975C319.622 183.014 315.242 178.817 312.497 172.074C317.793 168.54 317.793 168.54 321.324 168.54Z" fill="black"/>
<path d="M236.579 246.282C236.579 247.448 236.579 248.614 236.579 249.816C235.414 249.816 234.249 249.816 233.048 249.816C232.466 251.565 231.883 253.314 231.283 255.117C226.913 253.367 226.913 253.367 222.455 251.583C222.455 250.417 222.455 249.251 222.455 248.049C227.625 246.324 231.205 246.137 236.579 246.282Z" fill="black"/>
<path d="M326.621 198.577C328.369 200.909 330.116 203.241 331.917 205.644C329.587 206.227 327.256 206.81 324.855 207.411C324.273 209.743 323.69 212.076 323.09 214.479C321.924 214.479 320.759 214.479 319.559 214.479C321.675 209.031 323.932 203.766 326.621 198.577Z" fill="black"/>
</g>
<defs>
<clipPath id="clip0_6_183">
<rect width="500" height="500" fill="white"/>
</clipPath>
</defs>
</svg>
