<svg width="500" height="500" viewBox="0 0 500 500" fill="none" xmlns="http://www.w3.org/2000/svg">
<rect width="500" height="500" fill="white"/>
<path d="M69 290.392C86.5083 288.321 98.1181 295.423 112.945 303.759C124.472 308.737 138.908 309.062 150.719 304.547C154.962 302.546 159.121 300.435 163.272 298.253C178.79 290.236 192.712 286.148 210.132 290.392C220.148 293.941 229.248 298.986 238.358 304.367C247.232 308.76 260.498 307.777 270.113 306.113C279.623 302.761 288.013 297.34 296.575 292.139C312.873 286.76 331.219 289.456 346.42 296.533C350.086 298.496 353.661 300.626 357.184 302.831C363.69 306.513 369.847 307.519 377.285 307.533C379.202 307.546 379.202 307.546 381.158 307.56C393.981 307.062 404.27 302.124 415.33 295.986C425.138 290.655 431.797 289.6 443 290.392C443 292.698 443 295.004 443 297.379C441.993 297.575 440.985 297.771 439.947 297.973C429.813 300.414 422.071 304.438 413.671 310.48C396.859 322.395 382.982 325.983 362.182 324.245C355.787 323.146 350.45 320.462 344.759 317.468C332.076 310.868 321.404 308.307 307.16 311.354C299.931 314.198 293.287 317.937 286.652 321.93C272.329 330.105 256.304 331.365 240.123 328.822C231.212 326.044 223.411 321.323 215.425 316.594C203.662 310.011 193.441 309.392 180.142 311.354C175.741 313.266 171.66 315.208 167.462 317.468C152.418 325.388 136.896 326.516 120.16 323.581C110.375 320.238 103.239 315.299 95.5725 308.515C87.5992 302.393 78.6052 300.134 69 297.379C69 295.074 69 292.768 69 290.392Z" fill="black"/>
<path d="M218.498 256.19C221.454 257.875 224.403 259.574 227.346 261.281C241.84 269.251 254.244 271.811 270.609 268.118C278.455 265.446 285.608 261.199 292.737 257.023C305.566 250.056 319.045 249.015 333.251 252.689C341.779 255.944 349.413 260.259 356.929 265.415C366.692 271.139 379.191 269.93 390.075 269.026C399.479 266.58 407.346 262.224 415.545 257.139C424.481 251.912 432.908 252.33 443 253.177C442.6 256.562 442.6 256.562 441.236 260.221C437.887 261.57 437.887 261.57 433.518 262.423C425.608 264.455 420.44 267.436 414.002 272.438C399.453 283.483 385.328 288.224 366.949 287.82C357.077 286.118 348.607 282.175 339.762 277.562C328.967 272.08 319.765 270.765 307.912 273.656C306.681 274.199 305.451 274.741 304.183 275.3C302.71 275.929 301.236 276.558 299.718 277.206C296.128 278.952 292.607 280.84 289.133 282.805C272.745 291.887 258.508 294.907 239.716 291.129C234.111 289.256 229.259 286.477 224.135 283.541C208.761 275.08 196.331 271.206 178.377 274.31C170.312 277.176 162.962 280.82 155.443 284.876C143.193 288.952 126.818 288.288 114.868 283.115C108.21 279.28 101.847 275.056 95.4623 270.787C86.9885 265.472 78.421 261.76 69 258.46C69 256.717 69 254.973 69 253.177C85.2695 250.746 95.6432 256.056 109.245 264.012C120.259 270.385 132.378 271.361 144.858 269.026C153.783 265.873 161.928 261.164 170.155 256.547C185.053 248.366 203.401 248.46 218.498 256.19Z" fill="black"/>
<path d="M373.726 197.465C375.832 198.37 377.939 199.275 380.109 200.207C388.776 203.887 394.891 202.231 403.547 199.111C411.754 196.607 419.253 195.962 427.425 199.22C430.874 203.803 431.064 207.749 430.713 213.389C430.066 216.768 430.066 216.768 427.645 220.716C419.508 226.123 410.026 230.806 400.136 230.806C399.972 233.466 399.972 233.466 399.806 236.18C398.476 245.515 393.184 252.148 386.271 258.321C378.638 263.048 369.248 261.554 360.749 259.753C352.488 257.256 345.609 253.598 338.548 248.676C325.923 241.301 310.465 240.955 296.259 243.09C288.669 245.793 281.998 249.442 275.131 253.619C262.37 260.818 246.077 261.477 231.948 257.69C228.585 256.251 228.585 256.251 224.073 253.619C224.073 252.46 224.073 251.302 224.073 250.109C236.56 246.55 249.049 242.996 261.542 239.457C264.687 238.564 264.687 238.564 267.896 237.654C272.187 236.437 276.479 235.221 280.771 234.007C282.85 233.417 284.929 232.827 287.071 232.218C288.924 231.693 290.777 231.168 292.686 230.627C296.372 229.538 300.032 228.362 303.668 227.116C308.97 225.418 313.055 225.24 318.597 225.432C324.29 225.613 327.774 225.6 333.232 223.787C335.029 220.804 335.029 220.804 336.423 217.207C343.705 201.69 357.092 195.495 373.726 197.465Z" fill="black"/>
<path d="M134.475 246.215C139.745 248.116 144.167 250.422 149.071 253.123C148.469 254.263 147.866 255.402 147.246 256.577C140.381 258.743 133.979 258.489 126.836 258.412C125.468 258.404 124.101 258.396 122.692 258.388C119.322 258.368 115.952 258.337 112.583 258.304C112.583 251.396 112.583 251.396 114.842 248.421C120.818 244.319 127.431 245.196 134.475 246.215Z" fill="black"/>
<path d="M118.326 246.371C119.441 246.941 120.556 247.511 121.705 248.098C120.59 251.518 119.475 254.938 118.326 258.462C116.096 257.892 113.866 257.322 111.569 256.735C113.515 252.472 115.028 249.743 118.326 246.371Z" fill="black"/>
</svg>
