<svg width="500" height="500" viewBox="0 0 500 500" fill="none" xmlns="http://www.w3.org/2000/svg">
<g clip-path="url(#clip0_12_53)">
<rect width="500" height="500" fill="white"/>
<path d="M220.241 256.497C225.442 259.311 230.456 262.32 235.358 265.628C245.179 271.734 259.734 270.722 270.683 268.375C278.485 265.583 285.636 261.395 292.765 257.208C305.604 250.218 319.094 249.173 333.31 252.86C341.845 256.126 349.485 260.455 357.007 265.628C366.921 271.456 380.936 271.392 391.945 269.252C398.18 266.846 403.91 263.57 409.726 260.3C420.648 254.349 430.699 253.008 443.145 253.35C442.745 256.745 442.745 256.745 441.379 260.417C438.027 261.77 438.027 261.77 433.655 262.626C425.739 264.665 420.567 267.655 414.124 272.675C399.391 283.888 385.344 288.416 366.758 287.99C359.062 286.741 353.105 284.13 346.152 280.736C332.487 274.183 320.679 271.262 305.434 274.552C295.902 278.342 287.064 283.403 278.357 288.794C267.691 294.825 251.448 293.684 239.627 291.469C234.083 289.494 229.214 286.746 224.11 283.814C208.725 275.325 196.285 271.438 178.317 274.552C170.245 277.428 162.889 281.084 155.365 285.153C143.106 289.243 126.717 288.577 114.758 283.387C108.095 279.539 101.728 275.301 95.3377 271.018C86.8575 265.685 78.2833 261.961 68.855 258.65C68.855 256.901 68.855 255.152 68.855 253.35C85.1371 250.911 95.5188 256.238 109.131 264.22C120.902 271.049 133.335 270.442 146.538 269.252C152.999 267.123 158.443 264.019 164.193 260.417C182.161 249.31 200.73 247.49 220.241 256.497Z" fill="black"/>
<path d="M68.855 290.454C86.3768 288.359 97.9956 295.543 112.834 303.975C124.37 309.01 138.817 309.339 150.638 304.772C154.884 302.748 159.046 300.612 163.2 298.405C178.73 290.296 192.662 286.161 210.096 290.454C220.12 294.044 229.227 299.146 238.345 304.589C247.225 309.033 260.502 308.039 270.124 306.356C279.642 302.965 288.038 297.482 296.607 292.221C311.359 287.3 329.961 288.924 343.931 295.361C347.807 297.521 347.807 297.521 351.352 299.958C363.13 307.823 375.719 308.842 389.502 307.251C398.802 305.272 407.209 300.735 415.454 296.113C425.268 290.718 431.933 289.653 443.145 290.454C443.145 292.786 443.145 295.119 443.145 297.521C442.136 297.72 441.128 297.918 440.089 298.122C429.947 300.591 422.199 304.661 413.793 310.773C396.968 322.825 383.08 326.454 362.264 324.696C355.864 323.584 350.523 320.869 344.827 317.841C332.133 311.164 321.456 308.578 307.2 311.656C299.912 314.53 293.195 318.306 286.503 322.354C272.071 330.928 256.555 331.809 240.11 329.325C231.151 326.571 223.379 321.792 215.393 316.957C203.627 310.292 193.388 309.673 180.083 311.656C175.679 313.591 171.595 315.555 167.393 317.841C152.338 325.852 136.804 326.993 120.055 324.025C110.262 320.643 103.12 315.647 95.4481 308.785C87.4686 302.592 78.4676 300.308 68.855 297.521C68.855 295.189 68.855 292.857 68.855 290.454Z" fill="black"/>
<path d="M390.179 203.877C397.254 210.958 400.557 218.364 400.993 228.393C400.92 229.632 400.847 230.871 400.772 232.147C402.047 232.621 403.321 233.095 404.634 233.583C409.596 235.679 413.986 237.933 418.427 240.982C418.427 242.148 418.427 243.314 418.427 244.515C415.751 245.609 415.751 245.609 413.02 246.724C408.432 248.669 404.241 250.849 400 253.46C388.979 259.871 376.335 262.171 363.696 260.417C358.101 258.593 353.018 256.066 347.807 253.35C344.644 251.765 341.481 250.182 338.317 248.601C336.883 247.866 335.449 247.13 333.972 246.372C322.666 240.878 308.927 241.033 296.607 242.748C288.941 245.445 282.346 249.148 275.42 253.35C267.21 258.174 260.439 259.558 251.034 259.423C249.177 259.415 249.177 259.415 247.283 259.406C237.156 259.134 229.25 256.914 220.689 251.583C220.689 250.417 220.689 249.251 220.689 248.049C221.809 247.917 222.929 247.785 224.083 247.649C236.041 245.963 247.233 243.098 258.758 239.546C270.858 235.827 282.96 232.17 295.172 228.834C296.501 228.454 297.831 228.074 299.2 227.683C307.37 225.487 314.736 224.744 323.196 225.045C328.249 225.096 331.247 224.39 335.448 221.546C336.713 218.554 337.967 215.555 339.083 212.505C342.131 206.402 347.429 202.216 353.103 198.577C366.3 194.227 378.827 195.969 390.179 203.877Z" fill="black"/>
<path d="M109.462 248.049C140.988 247.723 140.988 247.723 155.366 249.816C150.421 255.545 145.409 258.253 137.805 258.978C133.868 259.125 129.954 259.132 126.014 259.092C124.667 259.106 123.319 259.119 121.931 259.133C115.098 259.109 111.739 258.991 105.931 255.117C107.096 252.784 108.262 250.452 109.462 248.049Z" fill="black"/>
</g>
<defs>
<clipPath id="clip0_12_53">
<rect width="500" height="500" fill="white"/>
</clipPath>
</defs>
</svg>
