<svg width="500" height="500" viewBox="0 0 500 500" fill="none" xmlns="http://www.w3.org/2000/svg">
<g clip-path="url(#clip0_12_70)">
<rect width="500" height="500" fill="white"/>
<path d="M220.248 256.497C225.404 259.292 230.353 262.304 235.186 265.628C245.169 271.496 259.591 270.799 270.558 268.375C278.411 265.576 285.593 261.42 292.765 257.208C305.604 250.218 319.094 249.173 333.31 252.86C341.845 256.126 349.485 260.455 357.007 265.628C366.921 271.456 380.936 271.392 391.945 269.252C398.18 266.846 403.91 263.57 409.726 260.3C420.648 254.349 430.699 253.008 443.145 253.35C442.745 256.745 442.745 256.745 441.379 260.417C438.027 261.77 438.027 261.77 433.655 262.626C425.739 264.665 420.567 267.655 414.124 272.675C399.391 283.888 385.344 288.416 366.758 287.99C359.062 286.741 353.105 284.13 346.152 280.736C332.487 274.183 320.679 271.262 305.434 274.552C295.902 278.342 287.064 283.403 278.357 288.794C267.691 294.825 251.448 293.684 239.627 291.469C234.083 289.494 229.214 286.746 224.11 283.814C208.725 275.325 196.285 271.438 178.317 274.552C170.245 277.428 162.889 281.084 155.365 285.153C143.106 289.243 126.717 288.577 114.758 283.386C108.095 279.539 101.728 275.301 95.3377 271.018C86.8575 265.685 78.2833 261.961 68.855 258.65C68.855 256.901 68.855 255.152 68.855 253.35C85.1371 250.911 95.5188 256.238 109.131 264.22C120.902 271.049 133.335 270.442 146.538 269.252C152.999 267.123 158.443 264.019 164.193 260.417C182.169 249.305 200.727 247.5 220.248 256.497Z" fill="black"/>
<path d="M68.855 290.454C86.3768 288.359 97.9956 295.543 112.834 303.975C124.37 309.01 138.817 309.339 150.638 304.772C154.884 302.748 159.046 300.612 163.2 298.405C178.73 290.296 192.662 286.161 210.096 290.454C220.12 294.044 229.227 299.146 238.345 304.589C247.061 308.95 258.929 308.195 268.358 306.356C274.144 304.13 279.551 301.312 285.02 298.405C302.17 289.405 316.076 286.809 335.269 291.779C341.094 293.931 346.23 296.438 351.352 299.958C363.13 307.823 375.719 308.842 389.502 307.251C398.802 305.272 407.209 300.735 415.454 296.113C425.268 290.718 431.933 289.653 443.145 290.454C443.145 292.786 443.145 295.119 443.145 297.521C442.136 297.72 441.128 297.918 440.089 298.122C429.947 300.591 422.199 304.661 413.793 310.773C396.968 322.825 383.08 326.454 362.264 324.696C355.864 323.584 350.523 320.869 344.827 317.841C332.135 311.165 321.454 308.575 307.2 311.656C299.965 314.533 293.316 318.315 286.676 322.354C272.341 330.623 256.304 331.898 240.11 329.325C231.193 326.515 223.385 321.74 215.393 316.957C203.621 310.298 193.392 309.672 180.083 311.656C175.679 313.591 171.595 315.555 167.393 317.841C152.338 325.852 136.804 326.993 120.055 324.025C110.242 320.636 103.094 315.577 95.3377 308.785C88.851 303.646 82.5456 301.756 74.6688 299.447C70.6205 297.521 70.6205 297.521 69.1653 293.774C69.0629 292.678 68.9605 291.583 68.855 290.454Z" fill="black"/>
<path d="M381.704 199.854C390.813 204.738 396.781 212.156 400.773 221.546C402.145 232.353 401.025 240.328 395.476 249.816C395.476 251.565 395.476 253.314 395.476 255.117C385.437 261.666 369.943 260.076 358.4 258.65C351.886 256.536 346.5 253.486 340.745 249.816C327.133 241.648 312.135 240.093 296.607 242.748C289.007 245.493 282.305 249.146 275.421 253.35C263.327 260.2 250.14 260.144 236.579 258.65C230.462 255.959 230.462 255.959 225.986 253.35C231.212 248.917 235.083 247.398 241.766 246.172C247.677 244.571 250.052 243.672 253.628 238.607C255.929 233.87 255.929 233.87 257.704 229.104C259.531 225.08 259.531 225.08 264.828 221.546C273.952 220.785 282.072 222.418 291.007 224.196C297.446 225.212 303.78 225.544 310.29 225.853C319.95 226.385 327.021 227.416 335.448 232.147C335.432 231.163 335.417 230.179 335.4 229.166C335.82 218.348 338.928 212.848 346.242 204.989C356.018 196.541 369.583 195.868 381.704 199.854Z" fill="black"/>
<path d="M135.283 244.294C137.249 244.95 139.215 245.606 141.241 246.282C143.556 246.956 145.873 247.618 148.193 248.27C149.977 248.78 151.762 249.29 153.6 249.816C153.6 250.982 153.6 252.148 153.6 253.35C138.425 259.708 126.103 263.59 110.234 257.767C108.232 256.892 106.229 256.018 104.166 255.117C105.101 250.762 105.635 248.395 108.579 244.957C117.177 240.655 126.184 242.096 135.283 244.294Z" fill="black"/>
<path d="M349.573 202.11C350.738 202.693 351.903 203.277 353.104 203.877C351.007 208.184 351.007 208.184 347.807 212.712C343.062 214.147 343.062 214.147 338.979 214.479C342.475 210.397 345.971 206.316 349.573 202.11Z" fill="black"/>
</g>
<defs>
<clipPath id="clip0_12_70">
<rect width="500" height="500" fill="white"/>
</clipPath>
</defs>
</svg>
