<svg width="500" height="500" viewBox="0 0 500 500" fill="none" xmlns="http://www.w3.org/2000/svg">
<g clip-path="url(#clip0_9_10)">
<rect width="500" height="500" fill="white"/>
<path d="M301.352 171.521C303.297 171.953 305.241 172.385 307.245 172.829C326.934 177.527 326.934 177.527 333.683 186.209C335.131 192.306 335.245 198.182 335.228 204.429C335.264 206.075 335.301 207.721 335.338 209.416C335.421 213.461 335.456 217.5 335.448 221.546C335.907 220.574 336.366 219.603 336.838 218.602C337.454 217.327 338.069 216.053 338.704 214.741C339.308 213.478 339.912 212.214 340.535 210.913C344.541 203.813 351.109 199.979 358.4 196.81C368.843 195.322 377.385 196.941 386.648 202.11C396.158 209.897 400.192 218.084 401.545 230.27C401.102 239.793 397.503 247.425 391.111 254.433C383.958 260.441 377.431 261.661 368.214 261.169C356.972 259.297 347.275 254.065 338.979 246.282C338.397 245.116 337.814 243.95 337.214 242.748C336.158 243.076 335.102 243.404 334.014 243.742C330.152 244.515 330.152 244.515 324.855 242.748C310.703 241.875 297.005 241.137 284.248 248.049C282.867 248.794 281.486 249.539 280.062 250.306C277.309 251.827 274.571 253.377 271.855 254.965C261.079 260.878 245.968 260.5 234.221 257.65C228.506 255.264 223.805 251.791 218.924 248.049C220.97 247.791 220.97 247.791 223.057 247.528C238.23 245.429 252.501 241.773 267.145 237.337C292.685 229.644 292.685 229.644 305.435 228.613C305.435 219.867 305.435 211.121 305.435 202.11C303.359 201.965 301.283 201.819 299.145 201.669C291.197 200.769 283.498 199.096 275.752 197.141C273.519 196.583 271.287 196.025 268.986 195.45C262.839 193.194 259.933 191.388 256 186.209C255.023 179.366 255.006 175.528 258.538 169.534C270.758 162.077 288.41 168.389 301.352 171.521Z" fill="black"/>
<path d="M68.855 290.454C86.3768 288.359 97.9956 295.543 112.834 303.975C124.37 309.01 138.817 309.339 150.638 304.772C154.884 302.748 159.046 300.612 163.2 298.405C178.73 290.296 192.662 286.161 210.096 290.454C220.12 294.044 229.227 299.146 238.345 304.589C247.061 308.95 258.929 308.195 268.358 306.356C274.144 304.13 279.55 301.311 285.02 298.405C302.539 289.244 316.677 286.473 336.179 292.235C343.711 295.208 350.415 298.705 357.262 303.036C363.773 306.76 369.935 307.777 377.379 307.791C379.298 307.805 379.298 307.805 381.255 307.819C394.088 307.315 404.384 302.32 415.453 296.112C425.269 290.719 431.932 289.653 443.145 290.454C443.145 292.786 443.145 295.119 443.145 297.521C442.136 297.72 441.128 297.918 440.089 298.122C429.947 300.591 422.199 304.661 413.793 310.773C396.968 322.825 383.08 326.454 362.264 324.696C355.864 323.584 350.523 320.869 344.827 317.841C332.135 311.165 321.454 308.575 307.2 311.656C299.965 314.533 293.316 318.315 286.676 322.354C272.341 330.623 256.304 331.898 240.11 329.325C231.193 326.515 223.385 321.74 215.393 316.957C203.621 310.298 193.392 309.672 180.083 311.656C175.679 313.591 171.595 315.555 167.393 317.841C152.338 325.852 136.804 326.993 120.055 324.025C110.262 320.643 103.12 315.647 95.4481 308.785C87.4686 302.592 78.4676 300.308 68.855 297.521C68.855 295.189 68.855 292.857 68.855 290.454Z" fill="black"/>
<path d="M218.758 256.497C219.978 257.208 221.198 257.918 222.455 258.65C223.857 259.434 225.259 260.217 226.703 261.025C229.398 262.53 232.078 264.062 234.738 265.628C245.069 270.946 257.063 270.595 268.358 269.252C275.862 266.44 282.622 262.662 289.545 258.65C303.112 251.133 315.324 249.44 330.696 252.356C339.074 254.817 345.96 258.936 353.434 263.399C367.185 270.987 379.937 271.979 395.103 267.94C402.508 265.164 408.968 261.484 415.669 257.325C424.611 252.081 433.045 252.5 443.145 253.35C442.703 256.732 442.703 256.732 441.379 260.417C438.289 261.894 438.289 261.894 434.317 262.847C426.291 265.182 420.517 268.782 413.724 273.565C397.319 284.519 380.065 290.627 360.165 286.92C353.115 284.463 346.44 281.275 339.83 277.814C329.022 272.32 319.817 270.995 307.952 273.896C306.72 274.441 305.489 274.985 304.22 275.546C302.746 276.177 301.271 276.808 299.752 277.458C296.159 279.21 292.635 281.104 289.158 283.076C272.758 292.188 258.509 295.218 239.703 291.427C234.094 289.548 229.239 286.76 224.11 283.814C208.725 275.325 196.285 271.438 178.317 274.552C170.245 277.428 162.889 281.084 155.365 285.153C143.106 289.243 126.717 288.577 114.758 283.386C108.095 279.539 101.728 275.301 95.3377 271.018C86.8575 265.685 78.2833 261.961 68.855 258.65C68.855 256.901 68.855 255.152 68.855 253.35C85.1371 250.911 95.5188 256.238 109.131 264.22C120.154 270.615 132.282 271.593 144.772 269.252C153.704 266.088 161.855 261.363 170.089 256.731C185.061 248.488 203.626 248.586 218.758 256.497Z" fill="black"/>
<path d="M143.448 238.994C145.824 239.455 145.824 239.455 148.248 239.926C150.528 240.387 150.528 240.387 152.855 240.857C154.914 241.274 154.914 241.274 157.015 241.699C160.662 242.748 160.662 242.748 165.958 246.282C161.99 248.316 158.017 250.339 154.041 252.356C152.921 252.931 151.802 253.506 150.648 254.099C138.329 260.327 126.831 263.14 113.331 258.837C109.041 257.113 104.822 255.309 100.634 253.35C101.732 245.749 103.73 242.515 109.531 237.303C119.756 232.512 132.871 236.812 143.448 238.994Z" fill="black"/>
</g>
<defs>
<clipPath id="clip0_9_10">
<rect width="500" height="500" fill="white"/>
</clipPath>
</defs>
</svg>
