<svg width="500" height="500" viewBox="0 0 500 500" fill="none" xmlns="http://www.w3.org/2000/svg">
<g clip-path="url(#clip0_9_17)">
<rect width="500" height="500" fill="white"/>
<path d="M345.931 139.387C352.906 140.526 355.486 142.004 360.166 147.337C363.863 158.405 364.65 170.349 365.683 181.902C365.835 183.516 365.988 185.129 366.145 186.792C366.515 190.719 366.876 194.648 367.228 198.577C368.295 198.649 369.363 198.722 370.463 198.796C382.042 199.789 387.79 202.065 395.476 210.945C401.311 219.422 402.295 227.44 400.773 237.448C397.658 246.948 393.387 253.16 384.883 258.65C371.866 260.606 359.398 259.819 347.807 253.35C344.723 251.792 341.633 250.247 338.538 248.712C337.072 247.96 335.607 247.208 334.097 246.434C322.727 240.904 309.001 241.023 296.607 242.748C288.942 245.445 282.347 249.148 275.421 253.35C267.083 258.281 260.246 259.474 250.704 259.313C248.887 259.344 248.887 259.344 247.035 259.375C238.733 259.327 233.1 257.554 225.986 253.35C227.752 249.816 227.752 249.816 231.416 248.448C233.02 248.015 234.623 247.583 236.276 247.138C238.073 246.645 239.871 246.152 241.723 245.644C243.667 245.126 245.611 244.608 247.614 244.074C251.642 242.978 255.669 241.88 259.697 240.781C261.734 240.229 263.77 239.676 265.869 239.107C271.516 237.551 277.14 235.934 282.759 234.28C284.429 233.79 286.099 233.299 287.819 232.794C290.963 231.867 294.104 230.932 297.243 229.989C304.26 227.937 310.395 226.23 317.793 226.847C318.205 225.847 318.617 224.847 319.042 223.817C321.857 218.838 325.467 215.66 329.6 211.718C335.583 205.287 335.583 205.287 337.924 197.072C337.442 192.133 336.61 187.496 335.448 182.675C334.101 174.586 333.386 166.683 333.131 158.491C333.032 155.583 333.032 155.583 332.931 152.617C334.103 144.384 337.803 140.771 345.931 139.387Z" fill="black"/>
<path d="M68.855 290.454C86.3768 288.359 97.9956 295.543 112.834 303.975C124.37 309.01 138.817 309.339 150.638 304.772C154.884 302.748 159.046 300.612 163.2 298.405C178.73 290.296 192.662 286.161 210.096 290.454C220.12 294.044 229.227 299.146 238.345 304.589C247.061 308.95 258.929 308.195 268.358 306.356C274.144 304.13 279.55 301.311 285.02 298.405C302.539 289.244 316.677 286.473 336.179 292.235C343.711 295.208 350.415 298.705 357.262 303.036C363.773 306.76 369.935 307.777 377.379 307.791C379.298 307.805 379.298 307.805 381.255 307.819C394.088 307.315 404.384 302.32 415.453 296.112C425.269 290.719 431.932 289.653 443.145 290.454C443.145 292.786 443.145 295.119 443.145 297.521C442.136 297.72 441.128 297.918 440.089 298.122C429.947 300.591 422.199 304.661 413.793 310.773C396.968 322.825 383.08 326.454 362.264 324.696C355.864 323.584 350.523 320.869 344.827 317.841C332.135 311.165 321.454 308.575 307.2 311.656C299.965 314.533 293.316 318.315 286.676 322.354C272.341 330.623 256.304 331.898 240.11 329.325C231.193 326.515 223.385 321.74 215.393 316.957C203.621 310.298 193.392 309.672 180.083 311.656C175.679 313.591 171.595 315.555 167.393 317.841C152.338 325.852 136.804 326.993 120.055 324.025C110.262 320.643 103.12 315.647 95.4481 308.785C87.4686 302.592 78.4676 300.308 68.855 297.521C68.855 295.189 68.855 292.857 68.855 290.454Z" fill="black"/>
<path d="M218.758 256.497C219.978 257.208 221.198 257.918 222.455 258.65C223.857 259.434 225.259 260.217 226.703 261.025C229.398 262.53 232.078 264.062 234.738 265.628C245.346 271.089 259.101 270.907 270.558 268.375C278.411 265.576 285.593 261.42 292.765 257.208C305.102 250.492 317.135 249.767 330.91 252.404C340.161 255.188 347.957 259.892 356 265.179C367.185 271.369 382.954 271.228 395.048 267.919C401.813 265.28 407.61 262.332 413.683 258.319C422.406 252.942 433.196 253.649 443.145 253.35C442.703 256.732 442.703 256.732 441.379 260.417C438.289 261.894 438.289 261.894 434.317 262.847C426.291 265.182 420.517 268.782 413.724 273.565C397.319 284.519 380.065 290.627 360.165 286.92C353.115 284.463 346.44 281.275 339.83 277.814C329.022 272.32 319.817 270.995 307.952 273.896C306.72 274.441 305.489 274.985 304.22 275.546C302.746 276.177 301.271 276.808 299.752 277.458C296.159 279.21 292.635 281.104 289.158 283.076C272.758 292.188 258.509 295.218 239.703 291.427C234.094 289.548 229.239 286.76 224.11 283.814C208.725 275.325 196.285 271.438 178.317 274.552C170.245 277.428 162.889 281.084 155.365 285.153C143.106 289.243 126.717 288.577 114.758 283.386C108.095 279.539 101.728 275.301 95.3377 271.018C86.8575 265.685 78.2833 261.961 68.855 258.65C68.855 256.901 68.855 255.152 68.855 253.35C85.2325 251.947 95.6073 255.571 109.303 264.344C120.5 270.982 132.099 271.423 144.772 269.252C153.68 266.008 161.848 261.366 170.089 256.731C185.061 248.488 203.626 248.586 218.758 256.497Z" fill="black"/>
<path d="M130.007 247.179C136.02 248.433 141.029 250.652 146.538 253.35C146.538 254.516 146.538 255.682 146.538 256.883C135.232 260.735 124.446 262.429 112.883 258.65C111.754 258.067 110.625 257.484 109.462 256.883C114.063 246.257 119.489 245.767 130.007 247.179Z" fill="black"/>
<path d="M351.338 140.27C351.338 140.853 351.338 141.436 351.338 142.037C348.425 142.62 345.512 143.203 342.51 143.804C342.51 147.885 342.51 151.967 342.51 156.172C340.763 157.046 340.763 157.046 338.979 157.939C339.305 158.913 339.63 159.888 339.966 160.893C340.907 165.862 340.189 169.362 339.09 174.282C338.574 176.646 338.574 176.646 338.048 179.058C337.773 180.252 337.498 181.445 337.214 182.675C336.631 182.675 336.049 182.675 335.448 182.675C333.951 174.622 333.38 166.681 333.131 158.491C333.065 156.553 332.999 154.614 332.931 152.617C333.683 147.337 333.683 147.337 336.89 143.134C341.917 139.399 345.224 139.714 351.338 140.27ZM342.51 150.871C343.676 150.871 344.841 150.871 346.041 150.871C345.459 152.62 344.876 154.37 344.276 156.172C343.693 154.423 343.111 152.673 342.51 150.871Z" fill="black"/>
<path d="M361.931 163.239C362.514 163.239 363.096 163.239 363.697 163.239C364.279 170.236 364.862 177.233 365.462 184.442C364.297 183.276 363.132 182.109 361.931 180.908C360.766 182.074 359.601 183.24 358.4 184.442C358.4 182.693 358.4 180.943 358.4 179.141C357.235 179.141 356.07 179.141 354.869 179.141C354.869 177.392 354.869 175.643 354.869 173.84C356.034 173.84 357.2 173.84 358.4 173.84C359.565 170.342 360.731 166.844 361.931 163.239Z" fill="black"/>
</g>
<defs>
<clipPath id="clip0_9_17">
<rect width="500" height="500" fill="white"/>
</clipPath>
</defs>
</svg>
