<svg width="500" height="500" viewBox="0 0 500 500" fill="none" xmlns="http://www.w3.org/2000/svg">
<g clip-path="url(#clip0_9_24)">
<rect width="500" height="500" fill="white"/>
<path d="M217.87 256.474C221.435 258.357 224.956 260.302 228.469 262.281C241.737 269.695 255.605 271.708 270.545 268.368C278.408 265.592 285.591 261.421 292.765 257.208C305.604 250.218 319.094 249.173 333.31 252.86C341.845 256.126 349.485 260.455 357.007 265.628C366.777 271.371 379.286 270.158 390.179 269.252C399.59 266.797 407.463 262.427 415.669 257.325C424.611 252.081 433.045 252.5 443.145 253.35C442.703 256.732 442.703 256.732 441.379 260.417C438.289 261.894 438.289 261.894 434.317 262.847C426.291 265.182 420.517 268.782 413.724 273.565C397.319 284.519 380.065 290.627 360.165 286.92C353.115 284.463 346.44 281.275 339.83 277.814C329.022 272.32 319.817 270.995 307.952 273.896C306.72 274.441 305.489 274.985 304.22 275.546C302.746 276.177 301.271 276.808 299.752 277.458C296.159 279.21 292.635 281.104 289.158 283.076C272.758 292.188 258.509 295.218 239.703 291.427C234.094 289.548 229.239 286.76 224.11 283.814C208.725 275.325 196.285 271.438 178.317 274.552C170.245 277.428 162.889 281.084 155.365 285.153C143.11 289.241 126.712 288.582 114.758 283.386C109.824 280.488 105.064 277.397 100.303 274.221C90.392 267.829 79.8208 262.935 68.855 258.65C68.855 256.901 68.855 255.152 68.855 253.35C85.1371 250.911 95.5188 256.238 109.131 264.22C120.154 270.615 132.282 271.593 144.772 269.252C153.702 266.088 161.856 261.367 170.086 256.729C185.729 248.135 202.164 248.772 217.87 256.474Z" fill="black"/>
<path d="M68.855 290.454C86.3768 288.359 97.9956 295.543 112.834 303.975C124.394 309.02 138.819 309.317 150.666 304.772C154.941 302.75 159.131 300.618 163.31 298.405C180.031 289.586 194.247 286.451 212.993 291.779C218.379 294.041 223.201 296.892 228.165 299.958C240.848 307.237 253.934 309.774 268.358 306.356C274.105 304.066 279.543 301.274 285.02 298.405C302.549 289.253 316.667 286.47 336.179 292.235C343.711 295.208 350.415 298.705 357.262 303.036C363.773 306.76 369.935 307.777 377.379 307.791C379.298 307.805 379.298 307.805 381.255 307.819C394.088 307.315 404.384 302.32 415.453 296.112C425.269 290.719 431.932 289.653 443.145 290.454C443.145 292.786 443.145 295.119 443.145 297.521C442.136 297.72 441.128 297.918 440.089 298.122C429.947 300.591 422.199 304.661 413.793 310.773C396.968 322.825 383.08 326.454 362.264 324.696C355.864 323.584 350.523 320.869 344.827 317.84C332.135 311.165 321.454 308.575 307.2 311.656C299.965 314.533 293.316 318.315 286.676 322.354C272.341 330.623 256.304 331.898 240.11 329.325C231.193 326.515 223.385 321.74 215.393 316.957C203.621 310.298 193.392 309.672 180.083 311.656C175.679 313.591 171.595 315.555 167.393 317.84C152.326 325.858 136.816 326.972 120.055 324.025C108.415 320.042 99.662 312.706 90.1446 305.162C83.6397 300.974 76.3251 299.268 68.855 297.521C68.855 295.189 68.855 292.857 68.855 290.454Z" fill="black"/>
<path d="M388.414 200.344C393.49 204.871 393.49 204.871 397.241 209.178C397.241 210.344 397.241 211.51 397.241 212.712C398.903 212.864 400.564 213.017 402.276 213.174C422.499 215.458 422.499 215.458 428.8 220.11C432.552 225.08 432.552 225.08 433.765 231.485C432.552 237.448 432.552 237.448 429.131 240.761C417.816 244.921 407.208 244.997 395.476 242.748C395.075 243.769 394.675 244.789 394.262 245.84C390.337 252.574 385.134 256.211 377.821 258.65C364.193 259.89 355.16 257.878 343.503 250.699C328.86 242.121 313.311 240.057 296.607 242.748C288.956 245.472 282.343 249.15 275.421 253.35C267.179 258.199 260.365 259.558 250.924 259.423C249.681 259.418 248.439 259.412 247.159 259.406C237.131 259.137 230.714 257.093 222.455 251.583C222.455 250.417 222.455 249.251 222.455 248.049C244.021 241.296 265.654 234.815 287.448 228.834C289.329 228.308 291.21 227.782 293.147 227.24C303.105 224.544 312.681 222.601 322.976 221.835C327.221 221.498 331.303 220.747 335.448 219.779C335.739 218.285 336.031 216.791 336.331 215.252C340.726 205.173 348.679 199.024 358.4 194.16C369.512 192.306 378.81 194.363 388.414 200.344Z" fill="black"/>
<path d="M139.476 251.583C143.779 253.35 143.779 253.35 146.538 255.117C137.668 261.035 130.473 260.591 120.055 260.417C124.492 250.585 128.968 251.039 139.476 251.583Z" fill="black"/>
</g>
<defs>
<clipPath id="clip0_9_24">
<rect width="500" height="500" fill="white"/>
</clipPath>
</defs>
</svg>
